<svg width="454" height="551" viewBox="0 0 454 551" fill="none" xmlns="http://www.w3.org/2000/svg">
<path d="M254.65 417.107C254.475 417.165 254.327 417.306 254.237 417.497C254.148 417.688 254.125 417.914 254.173 418.126C254.221 418.338 254.337 418.518 254.494 418.627C254.652 418.735 254.838 418.763 255.013 418.705C260.749 417.18 266.127 414.101 270.744 409.696C288.291 393.965 287.383 371.649 297.371 351.235C305.362 335.669 312.376 337.46 311.831 335.449C311.811 335.369 311.777 335.296 311.732 335.233C311.688 335.169 311.633 335.118 311.571 335.082C311.509 335.046 311.442 335.026 311.374 335.022C311.305 335.019 311.237 335.033 311.173 335.063C279.756 349.086 297.507 399.089 254.65 417.107ZM381.792 368.123C382.678 366.994 383.563 365.809 384.426 364.624C391.099 354.789 395.776 339.554 395.322 328.341C395.31 328.22 395.271 328.105 395.21 328.009C395.148 327.914 395.066 327.84 394.972 327.797C394.878 327.755 394.776 327.744 394.678 327.767C394.579 327.79 394.488 327.846 394.414 327.928C393.733 328.727 395.639 333.135 390.85 347.02C386.31 360.189 382.337 363.55 377.865 369.693C373.859 375.307 370.814 381.833 368.908 388.891C367.002 395.948 366.274 403.395 366.765 410.798C366.791 410.954 366.861 411.094 366.962 411.194C367.063 411.295 367.19 411.35 367.321 411.35C367.452 411.35 367.579 411.295 367.68 411.194C367.782 411.094 367.851 410.954 367.877 410.798C367.722 402.916 368.873 395.076 371.264 387.745C373.654 380.414 377.235 373.741 381.792 368.123ZM182.486 249.162C184.756 247.261 184.598 241.448 182.486 239.299C181.889 238.714 181.194 238.297 180.448 238.075C179.703 237.854 178.927 237.835 178.175 238.019C177.423 238.203 176.713 238.586 176.097 239.141C175.481 239.695 174.973 240.408 174.61 241.228C174.188 242.51 174.112 243.92 174.393 245.258C174.673 246.595 175.296 247.79 176.171 248.671C177.046 249.553 178.128 250.075 179.263 250.163C180.397 250.251 181.526 249.901 182.486 249.162ZM176.244 242.853C176.925 239.713 181.397 239.272 182.078 242.412C182.532 244.561 182.328 246.077 181.42 246.903C180.874 247.315 180.253 247.558 179.612 247.611C178.971 247.664 178.329 247.525 177.742 247.206C177.128 246.788 176.647 246.132 176.375 245.343C176.104 244.554 176.057 243.678 176.244 242.853ZM260.052 198.195C259.965 198.187 259.878 198.201 259.795 198.237C259.713 198.272 259.637 198.328 259.573 198.4C259.509 198.473 259.458 198.56 259.424 198.658C259.389 198.755 259.371 198.86 259.371 198.966C259.371 201.721 255.535 204.476 254.831 204.752C254.696 204.792 254.579 204.896 254.507 205.04C254.434 205.185 254.412 205.359 254.445 205.523C254.479 205.687 254.564 205.829 254.683 205.917C254.802 206.005 254.946 206.032 255.081 205.991C261.051 204.504 261.959 198.14 260.052 198.195ZM252.085 193.98C251.812 193.787 250.609 192.712 250.178 192.299C250.178 191.941 251.245 187.34 251.449 186.458C251.653 185.577 250.723 185.356 250.473 186.073C249.523 188.306 248.763 190.651 248.203 193.07C248.385 193.869 251.54 194.916 251.767 194.916C251.861 194.932 251.958 194.909 252.04 194.851C252.123 194.793 252.188 194.704 252.224 194.597C252.26 194.49 252.266 194.371 252.241 194.259C252.216 194.148 252.161 194.049 252.085 193.98ZM244.594 179.213C244.561 178.975 244.46 178.758 244.308 178.602C244.156 178.446 243.964 178.36 243.765 178.36C243.566 178.36 243.374 178.446 243.222 178.602C243.07 178.758 242.969 178.975 242.937 179.213C242.85 181.112 242.85 183.016 242.937 184.916C243.079 185.198 243.295 185.415 243.55 185.532C243.805 185.648 244.085 185.659 244.345 185.561C244.606 185.463 244.832 185.262 244.988 184.991C245.144 184.719 245.221 184.392 245.207 184.062C244.892 182.469 244.687 180.847 244.594 179.213ZM260.461 184.034C260.17 182.454 259.965 180.853 259.848 179.24C259.848 178.97 259.76 178.711 259.602 178.52C259.445 178.328 259.231 178.221 259.008 178.221C258.785 178.221 258.572 178.328 258.414 178.52C258.257 178.711 258.168 178.97 258.168 179.24C258.086 181.076 258.086 182.915 258.168 184.75C258.181 184.964 258.232 185.171 258.318 185.358C258.404 185.544 258.523 185.706 258.666 185.83C258.809 185.955 258.973 186.04 259.146 186.08C259.319 186.119 259.497 186.112 259.668 186.059C259.839 186.006 259.998 185.907 260.134 185.771C260.27 185.635 260.379 185.465 260.455 185.272C260.53 185.078 260.57 184.867 260.571 184.654C260.572 184.44 260.535 184.228 260.461 184.034Z" fill="#5077FF"/>
<path d="M438.11 146.511C437.951 129.347 433.207 122.57 418.566 123.094C414.389 123.094 339.91 124.003 334.576 124.223C330.999 124.224 327.461 125.115 324.179 126.84C322.295 127.75 312.443 133.728 311.353 136.896C310.173 139.155 311.558 203.512 311.353 216.791C309.776 215.701 308.155 214.708 306.496 213.816C306.196 212.006 305.559 210.303 304.635 208.838C303.71 207.372 302.522 206.182 301.161 205.358C299.073 204.366 296.394 205.551 294.851 203.76C293.307 201.969 296.076 201.005 296.371 198.25C296.362 196.34 296.18 194.436 295.827 192.575C294.458 182.588 292.547 172.722 290.106 163.041C288.063 155.079 285.929 148.329 280.05 144.004C280.05 130.615 278.938 52.1523 278.325 47.9923C277.721 43.8866 275.916 40.1832 273.244 37.5618C270.571 34.9403 267.209 33.5768 263.774 33.7214C263.547 33.7214 107.326 33.7214 107.144 33.9418C100.902 38.46 99.222 48.5433 98.8134 55.9818C98.6772 59.701 101.356 134.802 102.423 158.661C91.3678 158.936 35.5258 160.754 32.3251 162.821C25.0838 164.97 17.0707 171.086 15.5044 181.031C14.5283 187.423 16.5032 310.213 17.1615 316.026C17.6329 322.305 19.9445 328.17 23.6764 332.556C27.7397 336.882 33.2785 337.681 38.159 337.901L141.739 335.532C131.615 363.357 119.947 402.809 112.229 427.356C112.193 427.426 112.174 427.507 112.174 427.59C112.174 427.673 112.193 427.754 112.229 427.824C114.318 430.314 116.598 432.556 119.039 434.519C115.339 449.864 115.748 450.718 114.93 451.958C107.916 462.399 99.449 468.488 91.0954 469.48C87.2137 470.003 83.3774 470.83 82.0154 475.403C80.9031 479.563 83.8541 482.346 87.3045 483.503C89.5745 484.247 105.056 488.407 107.349 488.737C109.38 489.151 111.465 488.587 113.16 487.167C114.794 485.707 120.174 477.993 122.24 475.678C118.494 497.718 115.884 490.693 124.805 495.404C124.929 495.485 125.067 495.531 125.208 495.539C125.349 495.547 125.49 495.517 125.62 495.451C125.751 495.386 125.867 495.285 125.962 495.158C126.056 495.031 126.126 494.88 126.167 494.716C127.756 489.206 138.516 457.716 142.897 449.534C143.964 482.814 143.782 481.078 144.168 481.216C145.689 481.684 147.346 482.125 149.048 482.538C149.048 487.167 149.162 491.905 149.48 497.085C149.48 497.25 149.298 497.526 149.117 497.966C143.487 512.954 137.176 519.07 130.321 522.761C127.279 524.414 123.08 526.674 123.193 531.77C123.193 536.178 126.916 537.583 130.525 537.418C135.951 537.198 142.965 536.316 146.143 536.123C155.223 535.462 155.45 533.368 159.309 523.919C160.194 521.742 161.238 519.152 161.829 517.885C162.895 533.368 161.488 535.655 163.236 535.545C167.98 535.242 170.046 536.812 170.046 534.746C170.228 529.07 172.316 506.755 173.406 501.272C173.406 500.639 173.042 500.281 172.498 500.143C173.179 495.019 174.768 484.935 174.972 483.089C176.107 482.897 177.242 482.676 178.127 482.428C178.377 482.428 178.127 483.888 181.963 464.686C209.521 477.882 238.918 481.051 265.295 473.53C266.226 477.91 272.968 507.774 276.645 520.86C277.898 525.136 279.567 529.215 281.616 533.01C282.139 533.616 283.024 534.691 283.886 534.691C284.749 534.691 285.702 533.23 285.929 531.743C286.156 530.255 282.593 486.809 281.389 471.133C286.783 469.511 292.013 467.174 296.984 464.163L304.339 493.806C304.554 494.248 304.879 494.597 305.266 494.803C305.653 495.009 306.084 495.063 306.497 494.956C306.911 494.85 307.287 494.589 307.571 494.209C307.856 493.83 308.036 493.352 308.085 492.842L307.381 457.33C310.818 454.612 314.108 451.63 317.233 448.404C318.651 450.068 320.247 451.495 321.977 452.647C322.155 452.766 322.364 452.795 322.56 452.728C322.755 452.661 322.921 452.503 323.021 452.289C324.909 448.824 327.027 445.553 329.355 442.508C328.901 446.062 328.015 453.335 327.902 455.595C327.899 455.74 327.92 455.885 327.965 456.021C328.009 456.156 328.076 456.279 328.161 456.382C328.246 456.485 328.347 456.566 328.459 456.62C328.57 456.674 328.69 456.7 328.81 456.697C331.22 456.605 333.627 456.986 335.938 457.826C328.537 462.151 325.155 465.816 325.609 468.846C326.496 474.258 327.741 479.574 329.332 484.742C330.558 489.04 331.829 493.503 335.642 495.377C353.121 504.358 379.09 497.801 396.637 488.847C411.529 481.767 413.708 470.306 412.391 454.107C412.119 451.021 409.168 450.663 402.971 450.856L418.066 427.686C422.606 421.102 418.656 421.322 417.226 408.401C418.594 410.86 420.236 413.076 422.107 414.986C422.218 415.092 422.346 415.168 422.483 415.211C422.619 415.254 422.762 415.261 422.901 415.234C423.514 415.096 423.037 415.482 428.667 403.194C428.774 402.97 428.814 402.709 428.781 402.453C428.748 402.197 428.644 401.963 428.485 401.789C426.011 399.31 420.041 393.524 420.041 393.524C423.119 392.64 426.151 391.537 429.121 390.218C429.829 389.997 430.47 389.534 430.969 388.885C431.468 388.236 431.803 387.427 431.936 386.554C432.231 384.405 432.254 341.124 432.299 335.229C432.299 334.264 431.028 333.989 430.892 335.036C428.236 356.883 416.046 375.066 400.474 380.493C400.973 378.041 402.244 372.724 401.541 371.264C398.973 369.303 396.241 367.677 393.391 366.415C396.229 364.459 402.789 359.362 403.266 357.792C403.561 356.883 402.108 314.373 402.04 309.717C402.029 309.525 401.968 309.343 401.866 309.196C401.763 309.049 401.626 308.945 401.472 308.899C401.318 308.853 401.156 308.867 401.009 308.94C400.862 309.013 400.738 309.14 400.655 309.304C396.26 319.837 389.759 328.864 381.746 335.559C380.815 336.331 374.119 340.656 373.597 341.234C371.917 343.191 374.005 345.587 374.891 347.103C375.526 348.15 377.706 351.703 378.137 352.447C370.146 353.632 368.035 350.298 367.627 352.447C366.842 355.254 365.782 357.936 364.471 360.437C364.939 362.852 365.539 365.226 366.265 367.545C364.934 367.81 363.577 367.81 362.247 367.545C362.01 367.483 361.762 367.531 361.552 367.678C361.342 367.826 361.185 368.063 361.112 368.344C360.476 370.851 359.977 372.945 359.523 374.901C356.771 369.237 353.739 363.781 350.443 358.563C348.831 343.631 343.02 326.192 330.739 323.878C339.978 319.194 346.039 307.155 347.492 294.95C351.85 294.95 414.82 294.73 417.362 294.95C431.141 295.419 437.293 289.027 438.587 271.974C439.109 265.169 438.11 147.751 438.11 146.511ZM124.646 474.521C124.703 474.23 124.667 473.922 124.545 473.661C124.423 473.401 124.224 473.206 123.988 473.116C122.149 472.29 120.742 474.246 119.72 475.651C117.134 479.471 114.295 483.028 111.23 486.285C109.528 487.277 89.7107 482.29 87.2364 481.354C85.9045 480.988 84.7459 479.997 84.013 478.599C83.7263 477.582 83.7575 476.473 84.1007 475.482C84.4439 474.492 85.0752 473.689 85.8744 473.227C87.6223 471.932 88.9162 472.042 93.8194 470.94C98.7226 469.838 103.58 468.763 112.116 459.011C113.305 457.628 114.412 456.146 115.43 454.575C116.847 458.399 119.233 461.574 122.24 463.639C126.268 465.81 130.767 466.342 135.065 465.154C132.795 470.664 126.53 487.883 124.964 493.145C123.715 492.539 122.444 491.988 121.196 491.547C122.602 485.953 123.753 480.269 124.646 474.521ZM323.997 323.658C320.804 323.824 317.633 324.377 314.531 325.311C304.364 326.705 294.141 327.423 283.909 327.459C282.411 316.439 282.865 318.478 282.479 315.42C282.32 314.098 282.093 312.279 282.888 311.701C293.761 305.805 305.066 300.46 315.893 294.703C318.163 296.714 318.345 296.466 318.549 296.3C318.647 296.173 318.701 296.006 318.701 295.832C318.701 295.658 318.647 295.491 318.549 295.364C317.663 294.277 316.731 293.247 315.757 292.278C307.043 282.82 300.973 270.302 298.392 256.463C298.362 256.299 298.279 256.156 298.162 256.065C298.045 255.975 297.903 255.944 297.768 255.981C297.632 256.018 297.514 256.118 297.44 256.26C297.365 256.402 297.34 256.574 297.37 256.739C299.294 271.13 305.427 284.197 314.645 293.545L283.342 309.249C282.437 309.571 281.641 310.238 281.072 311.15C279.505 310.633 278.089 309.592 276.986 308.147C271.084 302.389 268.723 306.329 261.096 313.657C260.358 314.332 259.661 315.068 259.007 315.861C254.975 311.509 250.957 307.137 246.954 302.747C245.932 300.929 236.625 261.973 232.811 246.325C235.759 237.65 240.516 230.055 246.613 224.285C247.318 226.898 248.207 229.433 249.269 231.861C250.971 233.845 253.173 232.88 255.307 232.247C254.719 233.727 254.38 235.335 254.31 236.977C254.24 238.618 254.44 240.26 254.899 241.807C256.506 246.18 259.016 249.975 262.185 252.827C269.949 261.092 269.563 260.871 270.017 260.871C270.226 260.859 270.425 260.754 270.575 260.576C270.726 260.399 270.818 260.161 270.834 259.907C271.606 250.292 274.148 247.647 281.321 244.589C285.244 243.035 288.564 239.793 290.654 235.475C292.745 231.157 293.462 226.06 292.671 221.144C297.416 221.188 302.143 220.446 306.723 218.94C306.939 218.881 307.127 218.72 307.246 218.493C307.365 218.266 307.406 217.991 307.358 217.728C307.358 217.259 307.199 216.708 307.086 216.13C340.205 235.663 360.385 296.521 333.668 319.139C330.762 321.501 327.458 323.045 323.997 323.658ZM331.625 326.798C337.458 328.314 342.339 334.264 345.517 344.733C360.681 394.461 325.337 454.713 281.458 468.708C281.185 465.375 279.687 446.035 279.392 444.602C279.174 443.338 278.575 442.217 277.712 441.461C274.92 439.588 270.13 441.654 267.588 443.473C265.164 445.425 262.998 447.813 261.164 450.553C261.164 451.434 264.342 468.047 265.023 471.436C237.433 478.438 208.756 475.45 182.554 462.84C186.594 442.453 191.951 414.545 193.45 405.894C209.067 411.79 231.018 411.239 231.245 411.211C231.318 411.188 231.382 411.136 231.428 411.064C231.474 410.992 231.498 410.903 231.498 410.812C231.498 410.721 231.474 410.632 231.428 410.56C231.382 410.488 231.318 410.436 231.245 410.413C218.647 405.316 207.773 392.174 200.646 373.385C189.681 345.312 166.936 345.642 158.083 359.61C145.28 379.777 143.215 438.458 143.01 445.539C142.216 447.302 137.653 458.129 135.928 462.537C122.308 466.477 118.426 457.027 116.769 452.977C116.497 452.289 116.633 454.107 120.855 436.006C123.125 437.356 139.265 444.271 139.287 442.233C139.469 418.815 144.145 363.109 156.812 350.298C165.892 341.262 185.527 342.832 194.221 350.657C199.749 356.779 204.27 364.118 207.546 372.283C214.833 391.265 227.386 405.343 241.324 408.87C259.189 406.969 279.914 372.421 285.839 350.326C296.78 333.493 314.827 323.85 331.625 326.798ZM367.15 438.844C367.18 439.008 367.263 439.152 367.38 439.242C367.497 439.332 367.639 439.363 367.774 439.326C367.91 439.29 368.028 439.189 368.102 439.047C368.177 438.905 368.202 438.733 368.172 438.569C366.741 429.698 362.701 422.039 360.158 413.774C355.755 399.64 358.955 384.46 362.678 370.107C364.339 370.483 366.055 370.213 367.581 369.335C368.83 368.151 367.831 366.14 366.424 361.07C367.581 358.946 368.49 356.638 369.125 354.211C372.673 355.229 376.362 355.286 379.93 354.376C380.069 354.333 380.197 354.251 380.304 354.136C380.412 354.022 380.496 353.878 380.549 353.717C380.602 353.556 380.623 353.382 380.61 353.209C380.597 353.037 380.551 352.87 380.475 352.723C378.954 350.298 374.936 343.659 374.732 343.163C374.528 342.667 374.732 342.722 375.39 342.364C386.24 336.371 395.138 326.164 400.678 313.354C400.95 322.363 401.836 355.891 401.586 357.241C398.059 360.339 394.34 363.102 390.463 365.506C390.294 365.619 390.156 365.791 390.067 366C389.979 366.208 389.943 366.444 389.965 366.677C389.987 366.91 390.065 367.13 390.19 367.309C390.315 367.488 390.481 367.618 390.667 367.683C393.879 369.015 396.992 370.674 399.974 372.641C400.383 373.44 398.953 379.749 398.703 381.375L396.433 381.926C396.207 381.998 396.013 382.172 395.89 382.413C395.768 382.654 395.726 382.944 395.775 383.221C396.365 388.097 397.704 400.109 397.704 400.109C391.189 392.753 391.235 388.676 389.827 388.51C389.688 388.489 389.546 388.511 389.415 388.573C389.284 388.636 389.168 388.737 389.078 388.868C378.404 403.9 372.412 422.998 372.144 442.839C372.17 442.988 372.236 443.121 372.334 443.217C372.431 443.313 372.552 443.366 372.678 443.366C372.803 443.366 372.924 443.313 373.021 443.217C373.119 443.121 373.186 442.988 373.211 442.839C374.066 424.066 379.804 406.106 389.6 391.541C391.858 396.261 394.822 400.428 398.34 403.828C398.49 403.99 398.678 404.09 398.877 404.114C399.077 404.139 399.278 404.086 399.451 403.964C399.625 403.842 399.762 403.657 399.844 403.434C399.925 403.212 399.947 402.964 399.906 402.726C399.906 402.726 398.272 389.309 397.636 383.854C413.095 380.521 426.374 364.569 430.846 344.237C430.846 355.56 430.528 383.634 430.528 383.909C430.528 385.7 430.528 387.408 429.212 388.207C425.489 389.794 421.7 391.146 417.862 392.257C417.705 392.307 417.561 392.408 417.447 392.548C417.333 392.689 417.252 392.864 417.213 393.055C417.173 393.247 417.177 393.447 417.223 393.637C417.269 393.826 417.357 393.996 417.476 394.13C418.543 395.177 424.672 401.266 426.692 403.222C426.692 403.222 423.923 409.641 422.515 412.809C420.214 410.225 418.308 407.165 416.886 403.773C416.794 403.58 416.652 403.429 416.482 403.344C416.313 403.258 416.125 403.242 415.947 403.298C415.77 403.354 415.612 403.48 415.499 403.655C415.385 403.83 415.322 404.046 415.319 404.269C415.955 422.672 420.813 420.275 416.795 426.309C402.948 447.44 400.519 454.272 385.605 459.617C388.602 443.087 398.862 436.392 402.971 424.463C405.241 417.934 404.741 410.688 406.535 404.131C407.783 399.58 409.824 395.409 412.519 391.901C415.214 388.393 418.499 385.629 422.152 383.799C422.285 383.744 422.394 383.628 422.455 383.476C422.517 383.323 422.526 383.147 422.481 382.987C422.436 382.826 422.34 382.693 422.215 382.618C422.089 382.544 421.944 382.532 421.812 382.587C417.054 384.624 412.857 388.224 409.686 392.986C406.516 397.749 404.498 403.486 403.856 409.558C402.88 418.016 403.084 422.176 398.726 429.587C393.913 437.715 386.036 444.905 383.494 460.306C379.547 461.498 375.506 462.182 371.44 462.344C370.964 457.413 368.467 454.52 366.696 454.41C365.062 450.939 347.832 419.118 341.476 412.148C348.505 396.797 351.737 379.311 350.783 361.787C353.507 366.663 358.161 375.81 358.978 377.6C351.056 414.683 363.995 420.248 367.15 438.844ZM331.352 440.056C331.351 439.862 331.305 439.672 331.218 439.509C331.132 439.345 331.008 439.215 330.863 439.134C330.717 439.053 330.556 439.024 330.397 439.051C330.238 439.078 330.089 439.159 329.967 439.285C327.065 442.782 324.428 446.59 322.091 450.663C320.754 449.716 319.499 448.609 318.345 447.357C323.831 441.571 328.807 435.108 333.191 428.072C357.298 463.171 356.141 462.151 356.822 461.49C356.875 461.446 356.92 461.39 356.955 461.324C356.99 461.258 357.014 461.184 357.024 461.106C357.035 461.029 357.032 460.95 357.017 460.874C357.002 460.798 356.974 460.726 356.935 460.664C355.346 457.743 339.161 433.114 334.235 426.199C336.574 422.275 338.712 418.181 340.636 413.939C349.716 424.711 363.813 453.06 365.13 455.732C363.876 457.92 363.29 460.57 363.473 463.226C360.605 464.198 357.592 464.358 354.665 463.694C351.192 462.868 338.208 455.126 329.695 454.823C330.24 451.82 331.102 442.646 331.42 440.056H331.352ZM271.924 443.555H272.309C274.08 443.059 276.849 442.315 277.508 444.492C277.848 445.98 284.704 528.161 284.704 530.696C284.74 531.095 284.704 531.499 284.598 531.88C284.492 532.261 284.319 532.609 284.091 532.9C278.189 530.145 263.661 457.055 263.093 450.856C265.381 447.421 268.453 444.882 271.924 443.555ZM30.214 313.464C30.214 307.155 26.7636 182.078 27.1041 177.56C27.6943 169.047 30.214 165.218 35.7755 164.336C41.6548 162.958 96.5434 161.057 102.536 160.865C102.672 163.62 102.786 165.548 102.831 165.906C103.083 168.074 103.935 170.073 105.247 171.575C106.558 173.077 108.252 173.993 110.05 174.171C110.05 173.896 108.552 174.171 155.45 174.364C155.45 182.96 155.881 223.348 155.904 225.249C142.556 225.855 128.8 226.516 126.167 226.819C125.804 226.819 125.486 227.618 125.622 228.004C129.572 239.85 147.164 287.953 152.09 300.295C152.55 301.698 153.339 302.905 154.36 303.766C154.996 304.924 155.745 306.218 156.63 307.513C149.434 314.483 146.847 322.197 142.67 333.493C123.443 333.989 45.5138 335.945 43.7659 335.862C38.9081 335.614 35.4804 333.906 33.3466 330.655C30.1005 325.972 30.2367 319.58 30.214 313.464ZM292.83 203.429C293.307 205.523 295.1 206.653 297.87 206.735C302.637 206.487 304.68 211.474 305.542 217.204C300.902 218.305 296.195 218.941 291.468 219.105C291.331 219.107 291.197 219.147 291.075 219.223C290.953 219.298 290.847 219.407 290.766 219.541C290.685 219.674 290.63 219.829 290.606 219.992C290.582 220.156 290.59 220.324 290.628 220.483C291.353 223.628 291.36 226.953 290.648 230.102C289.937 233.251 288.533 236.107 286.588 238.363C280.481 245.498 270.698 241.559 269.268 258.006C267.225 255.857 259.666 248.06 258.122 245.774C255.466 242.054 254.399 235.883 257.123 231.999C262.956 230.842 268.851 230.206 274.761 230.098C274.894 230.098 275.021 230.034 275.114 229.92C275.208 229.807 275.26 229.652 275.26 229.492C275.26 229.331 275.208 229.177 275.114 229.063C275.021 228.949 274.894 228.886 274.761 228.886C267.962 228.3 261.129 228.894 254.467 230.649C251.925 231.503 250.676 232.109 249.541 229.216C248.974 227.756 245.592 215.248 245.001 212.934C243.957 209.931 244.593 210.84 246.5 209.408C248.368 211.324 250.465 212.884 252.719 214.036C252.719 214.367 253.9 218.747 254.081 219.546C254.158 220.208 254.431 220.813 254.849 221.249C255.267 221.685 255.801 221.922 256.351 221.915C261.645 222.506 266.978 221.565 271.914 219.171C276.851 216.776 281.249 212.996 284.749 208.14C284.819 208.025 284.85 207.882 284.838 207.74C284.826 207.598 284.771 207.466 284.684 207.37C284.596 207.274 284.482 207.221 284.365 207.221C284.247 207.221 284.133 207.273 284.045 207.369C280.53 211.682 276.306 215.049 271.648 217.251C266.99 219.453 262.003 220.442 257.01 220.152C255.421 220.014 255.625 220.428 254.286 214.642C260.415 216.736 261.958 213.898 259.779 216.516C259.708 216.619 259.669 216.748 259.668 216.883C259.667 217.017 259.705 217.148 259.775 217.252C259.844 217.356 259.942 217.428 260.05 217.454C260.159 217.481 260.272 217.461 260.369 217.397C268.626 209.905 274.65 199.354 277.53 187.34C277.551 187.262 277.559 187.18 277.553 187.099C277.547 187.017 277.528 186.938 277.496 186.866C277.464 186.794 277.421 186.731 277.368 186.68C277.315 186.628 277.255 186.591 277.19 186.569C276.01 186.073 276.804 188.911 271.265 199.903C268.995 188.883 270.516 177.229 268.065 166.154C268.031 165.997 267.948 165.862 267.833 165.78C267.718 165.697 267.581 165.673 267.452 165.713C267.322 165.754 267.211 165.855 267.143 165.994C267.075 166.134 267.055 166.3 267.088 166.457C267.486 168.801 267.744 171.176 267.86 173.565C263.025 167.752 252.81 158.468 244.752 160.589C243.016 160.654 241.37 161.546 240.172 163.072C238.974 164.599 238.32 166.636 238.35 168.744C236.398 165.548 237.76 160.672 239.531 157.972C244.207 150.561 252.515 146.952 260.801 144.197C268.133 141.828 277.939 142.158 283.501 150.203C285.913 154.218 287.656 158.766 288.631 163.592C291.53 174.468 293.553 185.66 294.669 197.01C294.755 197.468 294.738 197.946 294.618 198.392C294.498 198.838 294.28 199.237 293.988 199.545C293.535 200.016 293.19 200.621 292.987 201.302C292.784 201.983 292.73 202.716 292.83 203.429ZM153.747 299.634C151.614 294.124 130.525 237.371 127.166 228.004C134.679 228.004 219.464 224.23 220.939 224.175C223.822 235.415 240.62 303.298 240.62 303.877C240.62 303.877 220.553 304.483 209.726 305.006C191.452 293.821 174.541 295.033 162.237 302.94C155.291 302.582 154.973 302.747 153.747 299.634ZM240.007 185.357C239.69 177.092 240.007 171.334 241.074 170.755C244.979 168.606 252.265 168 260.369 171.113C261.391 171.526 264.66 173.593 267.951 175.273C268.314 184.089 267.951 193.429 270.221 201.969C268.214 206.24 265.637 210.075 262.594 213.32C248.86 215.524 240.62 202.19 239.962 185.357H240.007ZM260.846 350.106C260.301 351.373 269.54 359.803 270.539 360.712C273.808 364.459 269.812 366.498 266.498 362.889C248.338 343.08 232.857 320.379 212.677 306.825C224.435 306.356 238.986 305.833 241.483 305.805C244.003 308.753 273.263 342.006 280.822 349.885C259.711 350.078 261.05 349.665 260.801 350.106H260.846ZM283.137 349.72C282.91 349.472 244.547 307.403 243.072 305.309C242.209 303.546 226.297 238.005 222.642 224.808C224.884 226.664 226.547 229.381 227.363 232.522C228.725 237.233 244.184 300.047 244.252 300.35C244.438 301.876 245 303.297 245.864 304.428C251.834 311.398 277.167 339.278 285.407 347.543C284.931 348.26 284.454 348.976 284 349.72H283.137ZM281.48 323.244C277.53 322.859 276.282 322.308 275.306 323.768C274.988 324.374 274.08 325.724 272.922 325.421C272.722 325.364 272.533 325.258 272.367 325.108C272.202 324.959 272.064 324.769 271.962 324.552C271.859 324.335 271.795 324.094 271.773 323.846C271.751 323.597 271.771 323.345 271.833 323.107C272.945 321.839 274.103 320.737 275.147 319.387C275.203 319.292 275.231 319.177 275.226 319.06C275.222 318.943 275.186 318.832 275.123 318.743C275.06 318.654 274.975 318.594 274.881 318.571C274.786 318.548 274.688 318.564 274.602 318.616C273.444 319.525 272.332 320.985 271.016 321.949C270.907 321.951 270.8 321.982 270.702 322.039C270.604 322.096 270.517 322.178 270.448 322.28C270.176 322.414 269.882 322.47 269.59 322.443C269.297 322.417 269.013 322.309 268.761 322.128C268.508 321.946 268.293 321.697 268.133 321.398C267.973 321.1 267.872 320.76 267.838 320.407C267.838 318.203 269.79 316.743 270.925 315.117C271.379 314.566 270.698 313.74 270.221 314.263C269.005 315.509 267.874 316.873 266.839 318.34C265.531 318.845 264.196 319.241 262.844 319.525C262.231 319.525 262.844 319.993 260.165 317.211C262.958 314.032 265.999 311.19 269.245 308.725C274.761 304.317 275.783 311.949 280.754 312.83C280.749 316.321 280.992 319.805 281.48 323.244ZM286.588 345.946L263.729 321.151C264.558 320.952 265.376 320.694 266.18 320.379C266.162 320.977 266.259 321.573 266.463 322.118C266.667 322.663 266.972 323.143 267.355 323.519C267.739 323.896 268.189 324.16 268.67 324.289C269.152 324.418 269.652 324.409 270.13 324.264C270.221 324.848 270.424 325.398 270.724 325.869C271.023 326.34 271.409 326.718 271.852 326.973C272.294 327.228 272.78 327.353 273.27 327.337C273.76 327.321 274.24 327.165 274.67 326.881C277.803 325.145 274.67 324.484 279.732 325.035C280.391 325.035 281.094 325.2 281.775 325.228C281.98 326.523 282.184 327.707 282.411 328.837C282.466 329.062 282.579 329.26 282.735 329.399C282.891 329.538 283.08 329.612 283.274 329.608C323.861 328.561 303.931 321.757 286.542 345.946H286.588ZM232.108 243.349C229.543 232.908 228.203 224.478 223.028 222.329C223.028 222.659 224.957 221.971 157.765 225.084C157.765 211.667 157.289 179.213 157.22 174.281H238.6C237.964 186.211 238.6 199.076 245.41 207.948C244.593 208.333 243.14 209.16 242.799 209.849C243.637 214.301 244.76 218.667 246.159 222.907C240.069 228.124 235.196 235.167 232.017 243.349H232.108ZM222.778 158.192C222.778 154.335 222.052 133.59 221.893 129.788H227.681C227.681 133.7 228.113 154.363 228.249 158.165C226.433 158.11 224.594 158.137 222.778 158.192ZM189.523 159.019C189.545 151.525 188.751 88.1602 188.637 79.8952H194.426C194.426 100.833 194.925 153.206 195.016 158.909L189.523 159.019ZM153.702 90.5295H159.513C159.513 108.63 159.99 154.335 160.103 159.763H154.61C154.633 152.985 153.838 98.0782 153.702 90.5295ZM104.42 164.694C104.102 162.352 101.469 88.9867 100.402 60.8857C100.153 52.235 102.037 41.6007 106.826 36.6692C106.826 55.9542 108.869 162.38 109.323 172.022C107.987 171.554 106.802 170.601 105.925 169.291C105.048 167.981 104.523 166.377 104.42 164.694ZM312.693 141.8C312.506 140.002 312.861 138.182 313.692 136.676C315.469 134.978 317.377 133.492 319.389 132.24C317.119 137.199 317.709 135.822 318.913 222.88C317.04 221.148 315.093 219.538 313.079 218.058C312.852 204.173 312.738 153.702 312.761 141.8H312.693ZM332.533 172.408C333.588 170.591 334.989 169.111 336.618 168.094C338.246 167.077 340.053 166.553 341.885 166.567C351.124 166.567 354.483 179.902 356.299 190.756C357.888 199.269 358.002 209.298 363.109 216.24C386.854 242.358 388.647 205.909 403.084 207.314C407.624 207.948 410.643 212.989 413.889 216.626C415.277 218.517 417.224 219.668 419.306 219.828C421.389 219.988 423.439 219.144 425.012 217.48V256.628C419.428 256.628 348.513 255.995 340.727 256.105C338.832 251.29 336.599 246.681 334.053 242.33C334.326 238.996 332.646 175.383 332.601 172.408H332.533ZM341.613 257.978C352.055 258.171 418.316 258.392 425.194 258.392C425.204 259.441 425.257 260.489 425.353 261.532C425.369 261.754 425.453 261.961 425.587 262.113C425.72 262.266 425.896 262.353 426.079 262.359C427.419 262.359 426.806 264.866 426.579 190.15C426.579 189.968 426.519 189.792 426.412 189.663C426.306 189.534 426.162 189.462 426.011 189.462C425.861 189.462 425.716 189.534 425.61 189.663C425.503 189.792 425.444 189.968 425.444 190.15C425.444 195.054 425.194 211.254 425.171 214.449C424.65 215.445 423.942 216.277 423.105 216.877C422.269 217.477 421.326 217.827 420.356 217.9C419.386 217.972 418.416 217.765 417.524 217.294C416.633 216.824 415.846 216.104 415.229 215.193C408.668 206.928 402.176 200.041 392.688 210.675C384.924 220.4 380.657 228.61 369.988 220.207C365.668 217.414 362.412 212.692 360.908 207.038C357.321 191.418 358.32 167.311 343.156 164.116C341.129 163.864 339.082 164.22 337.194 165.152C335.306 166.083 333.635 167.563 332.328 169.46C332.328 165.273 332.079 161.195 331.942 156.953C331.942 156.777 331.885 156.609 331.783 156.485C331.681 156.361 331.542 156.291 331.398 156.291C331.253 156.291 331.115 156.361 331.012 156.485C330.91 156.609 330.853 156.777 330.853 156.953C330.853 161.526 332.033 225.387 332.396 239.41C328.898 233.854 324.876 228.814 320.411 224.395C320.411 213.898 319.639 145.74 319.548 141.525C319.412 133.866 321.932 129.43 327.743 127.584C332.51 125.986 418.225 124.388 426.374 125.738C431.777 126.565 434.864 132.984 435.636 138.549C436.589 145.464 436.862 259.769 436.884 261.284C437.066 274.784 435.749 290.184 424.172 292.085C421.562 292.526 356.98 292.719 347.605 292.609C347.895 280.658 345.858 268.793 341.658 257.978H341.613ZM275.147 43.5292C277.871 49.3147 276.327 47.7168 278.257 142.874C268.859 137.723 255.557 142.461 246.477 148.384V66.7538C246.477 66.1202 247.657 66.313 239.667 66.313C239.167 66.313 239.213 60.6377 240.893 152.958C239.53 154.45 238.346 156.165 237.374 158.055H229.747C229.747 154.473 228.884 129.072 228.794 128.852C228.767 128.708 228.701 128.581 228.606 128.49C228.51 128.4 228.392 128.352 228.271 128.356C225.819 128.256 223.363 128.32 220.917 128.548C220.844 128.609 220.787 128.692 220.751 128.789C220.714 128.886 220.701 128.994 220.712 129.099C220.712 131.854 221.121 154.225 221.28 158.192L212.722 158.413C213.153 111.357 213.312 113.837 212.722 113.782C206.57 114.085 206.434 113.947 206.434 114.498V158.578L196.446 158.826C196.446 152.682 195.674 83.2563 195.515 79.234C195.522 79.0528 195.472 78.8753 195.375 78.7372C195.278 78.5992 195.142 78.5109 194.993 78.4901C194.993 78.4901 187.888 78.4901 187.661 78.7656C187.003 79.3993 188.024 155.906 188.024 159.046L177.242 159.294V118.162C177.162 118.124 177.072 118.124 176.992 118.162C170.727 118.162 170.795 118.162 170.795 118.768V159.46L161.579 159.79C160.943 88.6561 160.421 89.9509 160.648 89.9509C160.649 89.7744 160.596 89.6037 160.5 89.4715C160.404 89.3393 160.271 89.255 160.126 89.2346C160.126 89.2346 153.066 89.2346 152.839 89.455C152.068 90.0336 153.157 155.107 153.157 160.011L140.672 160.286C140.74 52.9237 140.99 57.8552 140.4 57.8552L134.838 58.1031C134.452 58.1031 134.589 51.5187 134.589 160.396C125.236 160.617 125.509 160.396 125.372 160.837C125.329 160.923 125.304 161.021 125.302 161.122C125.299 161.223 125.318 161.323 125.357 161.412C125.396 161.501 125.454 161.576 125.524 161.63C125.594 161.684 125.675 161.714 125.758 161.719C139.537 161.719 222.982 160.699 236.58 160.203C235.218 164.419 235.467 169.075 238.623 171.526V172.133C225.502 172.601 113.228 172.133 111.208 172.133C111.208 168.524 108.665 42.4823 108.642 35.4295C124.374 35.4295 263.002 35.6774 266.612 36.3937C268.381 36.7415 270.065 37.5621 271.541 38.7961C273.017 40.0301 274.249 41.6468 275.147 43.5292ZM27.717 167.229C25.1065 171.802 24.9703 177.753 24.9703 183.511C24.9703 184.778 28.1483 320.379 28.625 323.685C28.8965 326.084 29.5879 328.385 30.6529 330.433C31.7179 332.482 33.1317 334.229 34.7994 335.559C32.1311 335.396 29.5226 334.541 27.1495 333.052C22.1101 329.691 20.2033 322.776 19.5223 318.947C18.3192 312.059 16.7302 193.759 17.0026 187.643C16.8437 177.505 19.6812 172.022 27.6716 167.229H27.717ZM368.217 478.792C377.303 478.023 386.204 475.299 394.504 470.747C400.406 467.441 407.76 462.207 410.802 458.046C411.279 471.05 409.1 479.453 398.09 485.596C383.517 493.861 348.945 504 334.008 491.905C332.669 490.335 329.468 478.406 328.197 472.896C334.712 478.158 353.689 480.197 368.172 478.792H368.217ZM162.918 514.882C161.011 514.689 160.103 517.003 159.468 518.684C154.156 532.459 154.224 533.341 148.821 533.781C147.119 533.919 131.093 535.517 129.912 535.517C125.781 535.875 123.488 532.431 126.417 528.216C128.086 526.688 129.939 525.48 131.91 524.635C138.221 521.081 148.209 511.686 150.41 500.06C152.689 503.309 155.797 505.539 159.241 506.397C163.504 506.952 167.804 505.883 171.544 503.339C170.682 509.289 168.684 527.831 168.434 533.644C167.107 533.475 165.773 533.401 164.439 533.423C164.416 531.853 163.985 514.992 162.873 514.882H162.918ZM171.272 500.694C168.322 503.226 164.783 504.548 161.17 504.468C159.259 504.294 157.398 503.643 155.703 502.558C154.009 501.473 152.516 499.975 151.318 498.159C151.318 497.305 151.069 488.076 151.137 483.117C158.492 483.821 165.875 483.996 173.247 483.64C172.883 486.065 171.726 495.9 171.226 500.694H171.272Z" fill="#5077FF"/>
<path d="M397.25 145.078C397.378 145.047 397.494 144.962 397.577 144.839C397.659 144.716 397.705 144.562 397.705 144.403C397.705 144.245 397.659 144.091 397.577 143.968C397.494 143.845 397.378 143.76 397.25 143.728H393.436C364.903 144.803 365.833 144.775 365.856 145.74C365.879 146.704 364.993 146.924 397.25 145.078ZM398.203 151.525C393.119 151.525 373.233 151.856 368.126 152.352C367.947 152.389 367.784 152.503 367.667 152.671C367.55 152.84 367.486 153.054 367.486 153.274C367.486 153.495 367.55 153.709 367.667 153.878C367.784 154.046 367.947 154.16 368.126 154.197C373.324 154.197 393.096 152.958 398.226 152.71C398.337 152.677 398.436 152.6 398.505 152.49C398.575 152.38 398.611 152.245 398.609 152.106C398.606 151.968 398.564 151.835 398.491 151.729C398.417 151.623 398.316 151.551 398.203 151.525ZM393.209 161.663C389.668 161.829 378.296 161.663 367.445 161.663C367.204 161.663 366.973 161.78 366.803 161.986C366.633 162.193 366.537 162.473 366.537 162.765C366.537 163.058 366.633 163.338 366.803 163.545C366.973 163.751 367.204 163.867 367.445 163.867C369.715 164.06 391.008 162.986 393.232 162.876C393.365 162.872 393.49 162.805 393.582 162.688C393.673 162.572 393.723 162.417 393.72 162.256C393.717 162.095 393.662 161.942 393.566 161.831C393.47 161.72 393.342 161.66 393.209 161.663ZM320.07 23.9961C317.41 24.7889 314.977 26.4427 313.03 28.7811C311.083 31.1196 309.696 34.0552 309.015 37.2752C306.495 48.984 315.235 61.7396 325.291 59.7009C327.489 59.1377 329.568 58.036 331.403 56.4633C333.237 54.8905 334.788 52.8798 335.96 50.5543C337.105 47.9877 337.755 45.1392 337.861 42.2233C337.968 39.3075 337.527 36.4004 336.573 33.7213C335.211 28.9827 331.17 21.4064 320.07 23.9961ZM325.563 47.2208C321.182 50.8849 316.052 44.2178 318.072 40.1129C321.704 32.7846 328.151 38.3221 328.31 41.0771C328.308 42.3003 328.053 43.5033 327.569 44.5764C327.085 45.6495 326.388 46.5586 325.541 47.2208H325.563ZM325.291 34.6855C323.759 34.1005 322.11 34.1481 320.603 34.8211C319.096 35.494 317.815 36.7543 316.96 38.4048C316.262 39.8907 315.998 41.6197 316.213 43.3105C316.427 45.0012 317.106 46.5542 318.141 47.7167C318.964 48.6763 319.977 49.3634 321.082 49.7122C322.188 50.061 323.348 50.0598 324.453 49.7087C325.557 49.3577 326.569 48.6685 327.392 47.7071C328.214 46.7457 328.819 45.5443 329.15 44.2178C331.087 45.7598 333.254 46.8268 335.529 47.3585C334.725 49.7384 333.492 51.8695 331.921 53.5953C330.35 55.3211 328.48 56.5978 326.449 57.3316C317.369 60.5274 309.288 50.5268 310.309 39.7272C310.608 37.212 311.374 34.8121 312.549 32.7087C313.724 30.6053 315.278 28.8534 317.092 27.5851C318.907 26.3169 320.935 25.5655 323.024 25.3876C325.113 25.2097 327.207 25.61 329.15 26.5583C327.352 28.8637 326.023 31.6466 325.268 34.6855H325.291Z" fill="#5077FF"/>
<path d="M299.64 71.2995C305.179 70.9414 406.602 70.0047 414.003 67.3323C419.7 66.065 421.652 62.8692 421.357 55.8991C421.357 53.5849 421.675 27.0542 421.085 22.3432C420.563 16.5301 417.998 13.7751 412.595 13.417C408.055 12.8935 302.841 14.8771 297.869 16.172C293.829 17.1362 291.059 18.927 290.515 24.437C290.265 26.1175 291.354 57.2215 291.491 60.252C291.808 66.8089 294.51 70.6934 299.64 71.2995ZM308.493 69.4261C307.156 69.2306 305.872 68.6768 304.734 67.8049C303.595 66.9329 302.631 65.7646 301.91 64.3845C300.31 61.0399 299.486 57.2317 299.526 53.3645C299.277 48.681 298.55 31.3245 298.46 27.1369C298.46 25.4288 298.46 19.7535 301.91 17.7148C307.244 17.0536 406.625 15.2628 410.87 15.4281C413.14 15.4281 416.204 15.6485 417.93 17.7699C420.472 20.883 419.655 26.0349 419.814 55.6511C420.313 63.1998 417.952 64.8528 412.141 65.8722C406.92 66.8364 309.401 69.4261 308.538 69.4261H308.493ZM296.916 23.638C296.621 26.1175 297.824 49.8105 297.937 52.9512C298.21 60.7479 300.049 66.2854 303.681 69.4812H301.411C295.872 69.4812 293.352 66.2579 293.102 59.3979C292.966 55.4858 291.922 26.3379 292.149 24.6849C292.626 19.6708 295.418 18.5688 299.118 18.0178C297.971 19.6021 297.222 21.5527 296.961 23.638H296.916Z" fill="#5077FF"/>
<path d="M350.489 30.7733C351.328 30.7733 377.388 29.9744 377.161 29.9744C377.278 29.9443 377.383 29.8663 377.458 29.7534C377.534 29.6406 377.575 29.4998 377.575 29.3545C377.575 29.2093 377.534 29.0685 377.458 28.9556C377.383 28.8428 377.278 28.7648 377.161 28.7346C375.232 28.7346 352.736 28.2663 350.443 28.7346C350.268 28.8115 350.118 28.9533 350.013 29.1398C349.908 29.3264 349.855 29.5482 349.86 29.7739C349.865 29.9995 349.928 30.2175 350.041 30.3969C350.154 30.5763 350.31 30.708 350.489 30.7733ZM385.151 39.424C381.883 39.8097 349.058 38.4598 348.831 40.4709C348.831 40.8566 349.127 41.1597 349.354 41.2148C352.214 41.628 385.038 40.774 385.265 40.7464C385.336 40.7374 385.406 40.7113 385.469 40.6698C385.532 40.6282 385.588 40.5719 385.634 40.5041C385.679 40.4363 385.713 40.3583 385.733 40.2746C385.754 40.191 385.76 40.1032 385.753 40.0164C385.746 39.9295 385.724 39.8453 385.69 39.7686C385.656 39.6918 385.609 39.624 385.553 39.569C385.497 39.514 385.433 39.4729 385.364 39.448C385.295 39.4231 385.223 39.415 385.151 39.424ZM384.493 50.0032C378.886 50.0032 350.625 49.8379 349.149 50.141C349.004 50.1877 348.876 50.2914 348.784 50.4359C348.692 50.5804 348.643 50.7576 348.643 50.9399C348.643 51.1223 348.692 51.2995 348.784 51.444C348.876 51.5885 349.004 51.6922 349.149 51.7389C350.716 52.0419 382.2 51.1603 384.516 51.0777C384.616 51.047 384.704 50.976 384.766 50.8764C384.828 50.7767 384.861 50.6544 384.858 50.5295C384.855 50.4045 384.818 50.2844 384.752 50.1887C384.685 50.0931 384.594 50.0277 384.493 50.0032ZM63.5605 226.489C78.9284 224.973 87.0777 200.95 75.1375 187.615C74.7062 187.147 75.5234 186.1 62.9476 208.168C47.7386 190.674 48.5558 191.335 48.2153 191.638C36.1843 206.046 48.1018 228.031 63.5605 226.489Z" fill="#5077FF"/>
<path d="M61.881 199.132C62.3123 199.71 62.108 199.793 72.3911 178.745C72.4158 178.698 72.4324 178.645 72.4401 178.591C72.4477 178.536 72.4462 178.48 72.4356 178.426C72.425 178.372 72.4056 178.321 72.3784 178.276C72.3513 178.232 72.317 178.194 72.2776 178.166C68.6514 175.85 64.4967 175.051 60.4581 175.893C56.4195 176.734 52.7226 179.17 49.9408 182.822C49.6684 183.235 49.2598 182.436 61.881 199.132ZM38.1595 301.204C38.7418 301.2 39.3099 300.986 39.7923 300.591C40.2748 300.195 40.65 299.635 40.8709 298.981C41.0917 298.327 41.1482 297.609 41.0333 296.916C40.9185 296.223 40.6373 295.587 40.2252 295.088C41.3602 292.857 48.715 278.172 50.8715 274.205C51.4304 274.519 52.0542 274.621 52.6616 274.498C53.2689 274.375 53.8317 274.033 54.2765 273.517L64.7639 283.324C64.5929 283.938 64.5624 284.597 64.6757 285.231C64.789 285.864 65.0417 286.448 65.4071 286.921C65.7724 287.394 66.2366 287.737 66.7502 287.915C67.2638 288.093 67.8075 288.098 68.3233 287.931C68.8392 287.763 69.3079 287.428 69.6794 286.963C70.051 286.497 70.3114 285.918 70.433 285.287C70.5547 284.656 70.5329 283.996 70.37 283.379C70.2071 282.762 69.9093 282.21 69.5082 281.782L73.231 275.831C73.8973 276.201 74.6527 276.259 75.3523 275.995C76.052 275.73 76.6465 275.162 77.0219 274.398L87.8725 278.861C87.8139 279.454 87.8782 280.055 88.0597 280.61C88.2411 281.164 88.5338 281.655 88.9114 282.038C89.2889 282.42 89.7392 282.682 90.2213 282.8C90.7035 282.917 91.2022 282.887 91.6721 282.711C92.142 282.535 92.5683 282.219 92.9122 281.793C93.256 281.366 93.5066 280.842 93.641 280.268C93.7755 279.693 93.7896 279.088 93.6821 278.505C93.5746 277.923 93.3489 277.382 93.0254 276.933C93.9334 272.993 101.788 243.873 102.582 241.118C103.344 241.037 104.052 240.603 104.557 239.906C106.714 241.972 113.183 247.84 115.271 249.548C115.152 250.118 115.15 250.715 115.266 251.287C115.382 251.858 115.613 252.386 115.937 252.823C116.261 253.261 116.668 253.595 117.124 253.796C117.58 253.997 118.069 254.058 118.549 253.975C119.029 253.892 119.484 253.667 119.876 253.319C120.267 252.971 120.581 252.512 120.791 251.982C121.001 251.451 121.1 250.867 121.08 250.279C121.06 249.691 120.92 249.118 120.674 248.611C126.712 236.93 126.985 237.123 126.349 236.6C126.23 236.509 126.087 236.477 125.948 236.507C125.81 236.538 125.686 236.629 125.6 236.765C124.533 238.638 119.494 247.234 119.494 247.234C118.957 246.913 118.354 246.791 117.76 246.885C117.167 246.978 116.609 247.281 116.157 247.757C114.046 245.967 107.349 240.153 105.215 238.142C105.307 237.507 105.254 236.853 105.065 236.25C104.875 235.647 104.554 235.118 104.137 234.718C103.72 234.318 103.221 234.062 102.694 233.977C102.167 233.893 101.631 233.983 101.142 234.238C100.654 234.493 100.231 234.903 99.919 235.426C99.6069 235.948 99.4169 236.563 99.369 237.206C99.3212 237.849 99.4173 238.495 99.6473 239.077C99.8772 239.659 100.232 240.155 100.675 240.512C98.7231 246.958 93.0481 269.274 91.5953 275.776C91.0499 275.605 90.4759 275.623 89.9384 275.827C89.4008 276.032 88.9211 276.415 88.5535 276.933C86.2835 275.996 79.4735 273.489 77.4078 272.69C77.4078 271.747 77.0993 270.843 76.5502 270.177C76.001 269.511 75.2562 269.136 74.4795 269.136C73.7029 269.136 72.9581 269.511 72.4089 270.177C71.8598 270.843 71.5512 271.747 71.5512 272.69C71.5561 273.477 71.7712 274.241 72.1641 274.866L68.1008 281.01C67.7116 280.907 67.309 280.902 66.9183 280.997C66.5276 281.092 66.1573 281.284 65.8308 281.561L55.0029 271.616C55.1211 270.763 54.979 269.887 54.6033 269.152C54.2276 268.417 53.644 267.874 52.9619 267.624C52.2798 267.374 51.546 267.434 50.8979 267.794C50.2498 268.153 49.732 268.787 49.4414 269.577C49.2156 270.145 49.1237 270.777 49.1758 271.404C49.2279 272.032 49.4219 272.629 49.7365 273.131C47.6027 277.015 39.862 292.03 38.7497 294.207C38.3423 294.082 37.9176 294.066 37.5046 294.159C37.0915 294.251 36.6996 294.451 36.3556 294.743C36.0116 295.036 35.7236 295.415 35.5109 295.855C35.2983 296.294 35.1661 296.784 35.1233 297.292C35.0806 297.799 35.1282 298.311 35.263 298.794C35.3978 299.277 35.6167 299.719 35.9047 300.09C36.1927 300.461 36.5431 300.753 36.9322 300.945C37.3212 301.137 37.7398 301.226 38.1595 301.204ZM77.6575 310.957C77.489 310.957 77.3273 311.038 77.2081 311.183C77.0889 311.328 77.0219 311.524 77.0219 311.728C77.0219 311.933 77.0889 312.129 77.2081 312.274C77.3273 312.418 77.489 312.5 77.6575 312.5C81.63 312.5 128.256 310.296 129.868 310.268C129.973 310.24 130.068 310.168 130.136 310.065C130.204 309.963 130.241 309.835 130.241 309.703C130.241 309.572 130.204 309.444 130.136 309.341C130.068 309.239 129.973 309.167 129.868 309.139C123.534 309.166 81.7208 310.406 77.6575 310.957ZM97.6108 291.259C97.7553 291.259 97.8939 291.189 97.9961 291.065C98.0982 290.941 98.1556 290.773 98.1556 290.598C98.1556 290.422 98.0982 290.254 97.9961 290.13C97.8939 290.006 97.7553 289.936 97.6108 289.936C95.8175 289.936 89.3253 289.468 87.8044 289.551C87.5395 289.551 87.2855 289.678 87.0982 289.906C86.9109 290.133 86.8056 290.441 86.8056 290.763C86.8056 291.084 86.9109 291.393 87.0982 291.62C87.2855 291.847 87.5395 291.975 87.8044 291.975C89.3026 292.195 95.7267 291.452 97.6108 291.259ZM73.3445 294.785H63.5608C63.3493 294.797 63.1443 294.878 62.9673 295.019C62.7904 295.161 62.648 295.357 62.5552 295.588C62.4623 295.819 62.4224 296.076 62.4396 296.332C62.4568 296.589 62.5304 296.834 62.6528 297.044C63.2657 298.146 63.7424 297.292 73.3899 296.3C73.5097 296.231 73.6101 296.12 73.6788 295.983C73.7475 295.845 73.7816 295.686 73.7768 295.525C73.7719 295.364 73.7285 295.208 73.6517 295.077C73.5749 294.945 73.4681 294.844 73.3445 294.785ZM34.641 309.497C35.1177 309.497 42.0185 308.588 43.5394 308.505C43.708 308.505 43.8697 308.424 43.9889 308.279C44.1081 308.134 44.175 307.938 44.175 307.734C44.175 307.529 44.1081 307.333 43.9889 307.188C43.8697 307.043 43.708 306.962 43.5394 306.962C42.6541 306.962 34.9815 307.348 34.4594 307.651C34.3208 307.752 34.2093 307.9 34.1382 308.076C34.0671 308.253 34.0395 308.45 34.0587 308.645C34.0778 308.84 34.143 309.024 34.2463 309.175C34.3496 309.326 34.4867 309.438 34.641 309.497Z" fill="#5077FF"/>
<path d="M114.749 261.725H115.112C124.76 260.678 124.419 261.477 124.828 260.926C124.903 260.818 124.953 260.687 124.971 260.547C124.989 260.407 124.975 260.264 124.93 260.133C124.886 260.002 124.813 259.888 124.718 259.805C124.624 259.721 124.513 259.671 124.397 259.659C121.014 259.659 117.836 259.301 114.795 259.466C113.501 259.493 113.614 261.725 114.749 261.725ZM63.9919 237.674C63.7451 237.674 63.5084 237.793 63.3338 238.005C63.1593 238.216 63.0612 238.504 63.0612 238.803C63.0612 239.103 63.1593 239.39 63.3338 239.602C63.5084 239.814 63.7451 239.933 63.9919 239.933C67.238 239.933 79.8819 238.528 82.9464 238.142C83.0916 238.108 83.2226 238.014 83.3168 237.876C83.4109 237.738 83.4625 237.564 83.4625 237.385C83.4625 237.205 83.4109 237.031 83.3168 236.893C83.2226 236.755 83.0916 236.661 82.9464 236.627C79.7911 236.93 67.1245 237.343 63.9919 237.674ZM62.4483 244.121C62.2657 244.175 62.106 244.309 61.9991 244.497C61.8921 244.685 61.8454 244.914 61.8678 245.141C61.8901 245.367 61.9798 245.576 62.1202 245.729C62.2605 245.881 62.4418 245.965 62.6299 245.966C66.2165 245.966 80.2905 244.424 83.8317 244.396C83.9883 244.396 84.1384 244.321 84.2491 244.186C84.3598 244.052 84.4219 243.87 84.4219 243.68C84.4219 243.49 84.3598 243.308 84.2491 243.173C84.1384 243.039 83.9883 242.963 83.8317 242.963C76.6907 242.773 69.5471 243.159 62.4483 244.121ZM82.0157 248.529C76.0751 248.425 70.1342 248.71 64.2189 249.383C63.1293 249.548 63.0839 251.559 64.2189 251.559C66.2392 251.559 77.2714 250.182 82.0384 249.961C82.1159 249.959 82.1924 249.939 82.2634 249.901C82.3345 249.864 82.3987 249.809 82.4525 249.742C82.5062 249.674 82.5484 249.594 82.5767 249.506C82.605 249.419 82.6188 249.325 82.6173 249.231C82.6158 249.137 82.5991 249.044 82.568 248.958C82.537 248.872 82.4923 248.794 82.4364 248.729C82.3805 248.663 82.3146 248.612 82.2425 248.578C82.1703 248.543 82.0933 248.527 82.0157 248.529ZM89.484 189.186C90.5963 189.186 101.924 187.753 104.148 187.56C104.305 187.56 104.455 187.485 104.566 187.351C104.676 187.216 104.738 187.034 104.738 186.844C104.738 186.654 104.676 186.472 104.566 186.338C104.455 186.203 104.305 186.128 104.148 186.128C103.036 186.128 90.8914 186.569 89.5521 186.679C88.2128 186.789 88.2128 189.186 89.484 189.186ZM91.8221 194.751C95.386 194.751 109.278 193.153 112.797 192.878C112.925 192.846 113.041 192.761 113.123 192.638C113.206 192.515 113.252 192.361 113.252 192.203C113.252 192.044 113.206 191.89 113.123 191.767C113.041 191.644 112.925 191.559 112.797 191.528C109.256 191.72 95.2725 191.803 91.7994 192.244C91.5522 192.292 91.3273 192.446 91.1658 192.678C91.0043 192.91 90.917 193.205 90.9198 193.509C90.9225 193.813 91.0152 194.106 91.1808 194.334C91.3464 194.562 91.5741 194.71 91.8221 194.751Z" fill="#5077FF"/>
</svg>
