<svg width="222" height="201" viewBox="0 0 222 201" fill="none" xmlns="http://www.w3.org/2000/svg">
<path d="M194.301 90.9435C200.784 92.7434 212.868 90.8684 209.219 88.6493C206.847 87.2069 193.009 86.9444 192.152 88.328C190.922 90.3168 193.928 90.8358 194.301 90.9435Z" fill="#5077FF"/>
<path d="M174.322 139.668C178.638 143.245 183.755 146.237 186.061 146.568C192.39 147.501 191.62 144.891 184.184 140.369C177.068 136.042 169.238 135.506 174.322 139.668Z" fill="#5077FF"/>
<path d="M189.074 108.116C187.207 109.003 188.809 110.573 192.895 111.987C200.72 114.662 207.708 115.341 207.37 113.35C206.965 110.962 192.097 106.681 189.074 108.116Z" fill="#5077FF"/>
<path d="M158.295 88.8646C158.929 89.6666 158.883 89.6388 161.44 90.4792C167.826 92.6372 175.804 93.4417 176.687 92.0149C177.971 89.9395 170.58 88.8966 164.368 86.9638C160.457 85.7758 156.743 86.909 158.295 88.8646Z" fill="#5077FF"/>
<path d="M158.302 101.84C151.869 101.38 154.365 105.159 162.732 108.58C166.592 110.154 169.528 109.976 168.866 108.205C168.325 106.745 160.525 102.002 158.302 101.84Z" fill="#5077FF"/>
<path d="M153.677 159.129C157.401 165.083 157.778 165.489 159.928 165.666C162.288 165.911 162.461 165.124 160.761 161.175C157.808 154.381 155.303 151.429 152.538 151.533C149.656 151.625 149.907 153.147 153.677 159.129Z" fill="#5077FF"/>
<path d="M76.5384 133.526C75.0786 132.638 60.6492 133.028 58.9184 133.998C56.6464 135.235 59.012 137.804 63.236 138.587C72.6201 140.366 81.9214 136.799 76.5384 133.526Z" fill="#5077FF"/>
<path d="M77.9331 109.56C79.9451 110.366 88.3949 111.22 90.0406 110.793C94.3263 109.65 89.6092 106.722 81.4726 105.464C72.2286 104.068 70.1588 106.498 77.9331 109.56Z" fill="#5077FF"/>
<path d="M57.9193 114.408C56.5967 111.878 40.795 106.673 39.7248 108.403C38.8686 109.786 43.6695 112.884 49.4635 114.681C55.4666 116.547 58.9651 116.472 57.9193 114.408Z" fill="#5077FF"/>
<path d="M137.987 137.509C139.502 137.597 139.767 136.866 139.395 133.307C138.736 127.372 137.078 124.876 134.118 125.397C130.218 126.12 133.815 137.352 137.987 137.509Z" fill="#5077FF"/>
<path d="M147.856 116.791C142.857 115.536 142.543 117.666 146.646 124.327C148.592 127.473 148.702 127.6 150.391 127.913C155.106 128.816 152.665 118.049 147.856 116.791Z" fill="#5077FF"/>
<path d="M113.825 124.304C109.242 125.623 102.641 129.999 103.226 132.199C103.697 133.974 105.554 134.627 108.414 134.164C111.899 133.606 115.842 130.886 117.822 127.686C117.848 127.643 121.727 122.087 113.825 124.304Z" fill="#5077FF"/>
<path d="M128.316 158.821C125.366 154.052 121.796 155.154 118.89 161.777C116.719 166.705 118.264 170.501 122.376 170.145C123.762 170.036 124.091 169.403 128.399 162.442C129.067 161.361 129.044 159.978 128.316 158.821Z" fill="#5077FF"/>
<path d="M129.435 102.02C133.895 102.828 129.812 91.0622 125.175 89.7298C122.728 89.0159 121.827 90.3717 122.672 93.2662C124.421 99.2681 126.148 101.449 129.435 102.02Z" fill="#5077FF"/>
<path d="M87.5301 58.0336C88.5859 57.5451 87.672 55.9771 84.1786 52.1868C78.7411 46.2622 74.3398 43.2289 73.4034 44.7422C72.1916 46.802 85.266 59.1561 87.5301 58.0336Z" fill="#5077FF"/>
<path d="M66.7925 64.7621C65.3841 66.2264 77.3608 75.8892 80.6615 75.9326C83.9621 75.976 82.748 74.2856 75.7403 69.0724C69.9296 64.7655 67.8154 63.7179 66.7925 64.7621Z" fill="#5077FF"/>
<path d="M100.201 153.626C93.9295 157.369 92.0032 162.208 96.4633 163.016C100.196 163.679 109.788 156.599 108.808 153.921C107.587 150.619 105.283 150.587 100.201 153.626Z" fill="#5077FF"/>
<path d="M36.93 86.2336C38.8363 88.2258 40.3496 89.027 45.5001 90.8497C56.0558 94.5906 55.907 91.5844 45.2744 86.5472C37.4483 82.8594 33.512 82.7271 36.93 86.2336Z" fill="#5077FF"/>
<path d="M43.7859 36.1943C44.6066 38.4191 54.6072 46.4043 57.7268 47.3491C60.5915 48.1985 60.6996 46.2999 58.002 44.0645C57.033 43.2969 54.1985 40.9782 51.7211 38.9957C45.7972 34.263 42.6207 33.1057 43.7859 36.1943Z" fill="#5077FF"/>
<path d="M39.4039 53.5228C40.5804 55.0713 48.6316 60.324 51.6441 61.4417C55.7673 62.9968 54.6096 59.7937 49.8968 56.452C42.079 50.9246 36.2237 49.3279 39.4039 53.5228Z" fill="#5077FF"/>
<path d="M66.0295 82.3283C64.6448 83.45 73.9287 90.4638 79.562 92.5207C82.8294 93.7339 83.9874 93.4859 83.2798 91.6871C82.2814 88.9378 67.6393 81.046 66.0295 82.3283Z" fill="#5077FF"/>
<path d="M112.598 66.7302C115.903 68.0854 117.027 67.9952 116.33 66.3815C115.289 63.9039 104.06 58.2064 103.151 59.6764C102.321 61.0168 106.589 64.2663 112.598 66.7302Z" fill="#5077FF"/>
<path d="M140.752 82.7195C143.6 83.7973 145.467 83.6232 145.127 82.3456C144.475 79.7473 132.718 73.7875 131.674 75.4737C131.273 76.1222 132.159 79.4585 140.752 82.7195Z" fill="#5077FF"/>
<path d="M131.043 85.6229C132.495 88.3501 141.406 95.2563 142.732 94.6347C144.257 93.8956 142.003 90.7405 136.779 86.1955C132.946 82.853 129.334 82.5008 131.043 85.6229Z" fill="#5077FF"/>
<path d="M85.9796 121.414C83.7861 123.234 87.09 125.303 91.492 124.885C100.894 123.997 107.005 120.513 103.219 118.211C101.577 117.212 87.9481 119.755 85.9796 121.414Z" fill="#5077FF"/>
<path d="M108.597 92.9791C110.359 93.2769 116.733 91.4996 117.322 90.5484C118.285 88.9919 114.722 87.2425 111.918 87.9179C106.014 89.4448 104.183 92.199 108.597 92.9791Z" fill="#5077FF"/>
<path d="M102.447 72.2805C100.693 73.5939 104.351 76.711 108.685 77.6208C115.036 78.9239 118.596 78.6491 117.219 76.9187C115.905 75.2871 103.599 71.4338 102.447 72.2805Z" fill="#5077FF"/>
</svg>
