<svg width="495" height="476" viewBox="0 0 495 476" fill="none" xmlns="http://www.w3.org/2000/svg">
<path d="M175.158 357.238C179.283 355.833 183.51 354.719 187.805 353.906L188.325 355.738C188.383 355.954 188.52 356.143 188.711 356.27C188.902 356.397 189.134 356.453 189.364 356.429L206.367 354.525C211.045 344.267 219.633 328.725 219.757 328.487C219.633 324.608 219.757 321.347 219.757 317.635C210.03 321.109 192.037 327.702 182.632 331.915C182.42 332.046 182.255 332.239 182.162 332.465C182.069 332.691 182.051 332.94 182.112 333.176C182.112 333.176 182.286 333.771 182.508 334.628C177.905 334.628 164.119 333.985 160.803 337.008C160.287 337.699 160.034 338.539 160.085 339.388C159.887 342.672 161.595 368.186 164.317 375.683C165.728 379.61 168.698 379.181 170.727 375.421C173.076 369.758 174.584 363.805 175.207 357.738C175.207 357.428 175.133 357.452 175.158 357.238ZM172.311 335.937C175.331 335.699 176.271 335.746 182.756 335.556C183.919 339.792 186.32 348.503 187.557 352.954C183.191 353.604 178.88 354.567 174.663 355.834C173.348 349.269 172.562 342.617 172.311 335.937Z" fill="#5077FF"/>
<path d="M402.956 127.639C403.575 126.806 402.783 125.735 402.115 124.902C404.008 123.03 406.107 121.362 408.377 119.928C412.206 118.093 415.707 115.682 418.747 112.788C420.009 111.526 422.385 108.932 421.494 107.409C420.603 105.886 419.019 105.791 416.866 106.671C417.799 105.729 418.56 104.643 419.118 103.458C419.811 101.602 418.178 100.102 414.638 101.483C415.925 99.5074 416.222 97.4368 414.044 96.4372C412.287 95.628 409.713 97.5558 408.228 98.8172C405.312 101.267 402.575 103.907 400.036 106.719C398.477 103.577 396.002 99.9596 392.908 101.102C389.814 102.244 392.215 107.361 393.799 110.146L388.181 113.883C387.332 113.442 386.372 113.236 385.409 113.288C379.023 114.335 349.694 135.802 346.724 135.802C344.447 135.802 311.926 120.808 283.81 116.477C283.756 116.315 283.655 116.17 283.519 116.061C283.383 115.952 283.218 115.881 283.043 115.858C278.139 115.053 273.167 114.695 268.193 114.787C268.042 114.797 267.895 114.838 267.763 114.908C267.63 114.978 267.515 115.075 267.425 115.192H265.346C264.851 113.264 263.02 108.813 262.376 107.1C264.059 105.695 266.386 104.981 267.599 102.72C269.826 98.5316 269.727 91.2488 269.108 86.584C271.905 84.5372 271.979 81.2528 271.336 77.897C271.088 76.5404 270.321 73.4702 269.133 72.7086C268.465 72.2802 267.054 72.7086 265.841 73.137C264.629 70.4238 264.629 71.6614 265.124 70.5666C265.354 70.062 265.488 69.522 265.52 68.972C266.831 69.3528 269.554 66.83 268.613 63.498C268.121 62.3052 267.516 61.158 266.807 60.0708C267.153 59.2616 267.896 58.2858 265.569 55.3108C264.567 54.2714 263.266 53.5424 261.832 53.2164H260.693C259.873 52.0698 258.667 51.2296 257.278 50.8364C255.182 50.3224 252.959 50.6216 251.09 51.6694C250.595 52.0264 250.199 52.5024 249.704 52.8356C248.585 52.1821 247.301 51.8365 245.992 51.8365C244.683 51.8365 243.399 52.1821 242.279 52.8356C241.624 53.0828 241.028 53.4548 240.526 53.9292C240.024 54.4036 239.627 54.9707 239.359 55.5964C238.146 55.194 236.86 55.0391 235.581 55.1416C234.303 55.244 233.061 55.6015 231.934 56.1914C227.658 58.4208 224.46 62.1711 223.024 66.6396C222.984 67.3134 222.984 67.9888 223.024 68.6626H222.752C219.039 68.139 214.312 76.6118 218.099 83.2044C218.544 83.9898 219.113 84.7276 219.658 85.5844C221.242 87.9644 220.623 88.6784 224.162 91.582C225.202 92.4388 225.375 92.3674 226.019 92.891C226.662 93.4146 226.415 93.1528 226.786 94.4856C226.988 95.2707 227.351 96.0094 227.852 96.659C228.353 97.3085 228.984 97.856 229.706 98.2698C229.969 100.598 231.002 102.783 232.652 104.505C233.174 105.068 233.784 105.549 234.458 105.933C234.641 106.032 234.844 106.089 235.052 106.1C235.795 110.527 236.711 116.286 237.107 118.738L234.904 119.88C232.022 120.995 229.219 122.291 226.514 123.76C226.302 123.901 226.152 124.113 226.093 124.355C223.469 125.687 220.994 126.949 219.584 127.758C199.932 138.968 144.121 212.867 143.552 216.246C143.489 216.44 143.489 216.648 143.552 216.841C144.352 218.069 145.326 219.182 146.447 220.15C146.102 220.756 145.687 221.322 145.21 221.839C140.26 224.957 132.835 229.598 128.85 233.739C128.571 233.979 128.361 234.284 128.242 234.626C128.123 234.967 128.098 235.332 128.171 235.686C128.243 236.039 128.41 236.368 128.655 236.64C128.9 236.912 129.215 237.118 129.568 237.238C130.31 237.476 130.434 237.405 135.26 234.858C133.934 235.977 132.849 237.335 132.068 238.856C131.746 240.165 132.983 240.927 134.543 240.689C135.42 240.468 136.255 240.114 137.018 239.642C136.571 240.305 136.334 241.077 136.334 241.867C136.334 242.657 136.571 243.43 137.018 244.092C139.493 247.091 145.977 237.643 149.393 235.31C150.779 237 152.66 240.951 155.654 239.904C158.253 238.975 155.407 233.478 155.654 231.883C156.662 230.953 157.737 230.094 158.872 229.313C160.781 230.674 162.964 231.639 165.282 232.145C169.366 232.145 211.985 190.78 215.228 187.472C214.064 197.992 208.199 243.14 209.436 251.923C210.005 255.897 219.93 256.468 224.113 256.683C222.851 285.243 222.009 328.511 221.786 328.963C215.228 342.553 213.446 346.266 211.243 350.383C207.233 357.761 190.354 384.988 188.448 391.176C188.176 392.152 188.151 392.533 189.215 394.342C186.026 397.566 183.066 400.993 180.355 404.6C178.994 406.98 184.835 429.161 188.968 437.015C189.908 438.776 191.443 441.49 193.497 441.418C199.685 441.204 199.66 419.832 199.487 413.858C199.486 413.674 199.415 413.496 199.289 413.358C200.41 411.748 201.634 410.206 202.952 408.741C203.738 409.262 204.566 409.723 205.427 410.121C206.268 410.478 207.209 409.859 207.902 409.312C216.143 403.076 260.594 349.812 270.123 324.679C274.454 313.208 280.221 297.357 281.855 286.123C282.853 279.021 282.945 271.827 282.127 264.703C282.127 264.602 282.169 264.505 282.243 264.434C282.317 264.362 282.418 264.322 282.523 264.322C282.628 264.322 282.729 264.362 282.803 264.434C282.877 264.505 282.919 264.602 282.919 264.703C284.158 271.868 284.4 279.159 283.637 286.385C281.805 301.974 269.009 334.461 262.178 346.409C268.069 345.361 280.048 343.077 285.839 341.411C305.144 335.77 322.964 318.943 324.524 300.046C325.028 291.144 325.028 282.221 324.524 273.319C324.357 261.029 322.695 248.8 319.574 236.881C324.821 234.144 329.622 230.931 331.181 227.98C334.523 221.673 325.687 185.378 323.756 175.191C334.325 176.31 352.318 178.333 360.708 172.026C370.311 164.6 391.052 143.704 402.956 127.639ZM198.15 412.549C193.695 409.955 187.458 403.79 186.518 398.959C187.532 397.721 188.597 396.579 189.587 395.294C192.941 400.216 197.123 404.567 201.962 408.17C200.602 409.556 199.33 411.018 198.15 412.549ZM394.913 110.812C395.041 110.734 395.133 110.611 395.169 110.469C395.206 110.328 395.185 110.178 395.111 110.051C394.244 108.504 391.646 103.054 393.452 102.435C394.492 102.054 395.408 102.673 396.175 103.506C397.347 104.935 398.259 106.544 398.873 108.266C398.919 108.406 399.003 108.531 399.117 108.628C399.232 108.726 399.371 108.791 399.521 108.818C399.671 108.845 399.826 108.832 399.969 108.781C400.112 108.73 400.238 108.642 400.333 108.528C402.808 105.886 408.599 99.8644 411.866 98.246C414.341 97.0084 414.935 99.2932 408.872 104.624C407.479 105.646 406.141 106.734 404.862 107.885C404.792 107.978 404.754 108.091 404.754 108.206C404.754 108.322 404.792 108.434 404.862 108.528C404.862 109.146 405.382 109.837 406.273 109.194C408.424 107.378 410.698 105.7 413.079 104.172C414.295 103.342 415.707 102.818 417.188 102.649C416.445 104.839 409.54 110.789 408.946 111.455C408.758 111.617 408.643 111.844 408.627 112.087C408.611 112.33 408.695 112.569 408.86 112.753C409.026 112.937 409.259 113.051 409.512 113.071C409.764 113.091 410.014 113.015 410.208 112.859C412.955 111.146 417.757 107.147 419.415 107.742C421.073 108.337 416.148 112.764 414.911 113.811C407.807 119.737 409.639 115.929 401.422 123.974C397.845 120.206 393.738 116.938 389.22 114.263L394.913 110.812ZM287.374 224.648C286.953 221.363 286.433 217.817 285.79 214.128L286.854 212.772C291.804 206.655 293.289 196.921 292.819 189.281C295.467 200.443 297.571 211.415 299.18 222.315L287.374 224.648ZM250.571 143.157C244.061 138.397 233.592 130.186 227.504 124.569L237.404 119.809C246.494 127.974 254.276 137.39 260.495 147.75C270.005 164.549 277.059 182.528 281.459 201.181L246.165 153.176L250.769 143.99C250.83 143.848 250.843 143.692 250.808 143.543C250.772 143.393 250.69 143.258 250.571 143.157ZM267.302 116.167C267.45 116.429 269.158 119.928 271.757 126.044C271.757 126.306 271.286 132.256 271.064 134.351C267.905 133.146 264.926 131.546 262.203 129.591C262.748 127.52 265.198 118.119 265.371 116.001L267.302 116.167ZM258.515 141.729C258.689 141.3 258.862 140.729 259.06 140.063L260.718 140.896C261.659 141.491 261.287 139.682 262.129 144.918C262.129 145.798 262.376 146.774 262.426 147.845C261.287 145.87 259.877 143.752 258.54 141.729H258.515ZM257.129 139.729C252.454 133.352 247.131 127.436 241.24 122.07L259.877 129.852C259.159 131.495 258.119 136.516 257.154 139.729H257.129ZM276.162 153.676C273.687 147.179 271.781 139.92 270.841 138.016C270.897 137.422 270.897 136.825 270.841 136.231C271.199 136.359 271.574 136.439 271.955 136.469C272.193 136.471 272.425 136.391 272.607 136.242C272.789 136.093 272.909 135.887 272.945 135.66C273.143 134.874 273.464 130.9 273.514 130.019C280.714 147.499 286.724 165.411 291.507 183.64C277.523 155.033 279.677 163.315 276.187 153.676H276.162ZM296.63 199.11C290.987 173.097 281.063 140.658 269.777 116.62C273.921 116.622 278.059 116.94 282.152 117.572C284.255 135.66 282.498 135.041 283.909 135.755C285.32 136.469 293.809 139.753 295.071 140.253C294.947 142.086 296.729 194.493 296.655 199.11H296.63ZM268.143 74.2318C269.433 76.9394 269.889 79.946 269.455 82.895C269.253 83.6455 268.839 84.3276 268.259 84.8652C267.678 85.4029 266.954 85.7751 266.166 85.9404C265.378 86.1056 264.559 86.0575 263.798 85.8014C263.037 85.5453 262.365 85.0911 261.857 84.4896C260.676 82.0973 259.787 79.5816 259.208 76.9926C259.877 76.1596 267.005 74.4936 268.143 74.2318ZM234.087 98.0318C233.183 97.6359 232.258 97.2864 231.315 96.9846C230.683 96.7345 230.118 96.3485 229.664 95.8561C229.211 95.3637 228.881 94.778 228.699 94.1438C228.518 93.5097 228.489 92.844 228.617 92.1978C228.744 91.5516 229.024 90.942 229.434 90.4158C230.993 89.1544 232.404 89.2258 233.691 91.106C234.508 92.5578 234.483 92.6768 234.854 92.8196C234.961 92.8647 235.076 92.8874 235.193 92.8862C235.309 92.885 235.424 92.8599 235.529 92.8126C235.635 92.7653 235.728 92.6968 235.804 92.6118C235.88 92.5268 235.936 92.4272 235.968 92.3198C236.335 90.83 236.394 89.2855 236.141 87.774C235.844 86.1318 235.795 78.849 235.844 78.611C236.567 78.9774 237.38 79.1501 238.196 79.1108C242.675 78.9442 243.566 76.7308 245.348 74.922C247.403 75.1124 247.823 76.0644 250.15 74.922C251.239 74.3261 252.239 73.5893 253.12 72.7324C253.831 73.0124 254.518 73.3467 255.174 73.732C256.658 74.4179 258.33 74.6286 259.947 74.333C261.564 74.0374 263.04 73.2512 264.158 72.0898C264.431 72.5896 264.678 73.0894 264.901 73.613C262.627 74.2916 260.485 75.3292 258.565 76.6832C258.144 77.183 258.763 79.8962 258.911 80.5388C256.838 80.7896 254.832 81.4111 252.996 82.3714C252.625 81.1338 251.808 78.8252 250.521 78.1826C250.134 78.0686 249.72 78.0686 249.333 78.1826C247.106 78.5158 239.111 80.8244 238.146 82.0858C237.305 82.9664 239.705 89.7732 240.448 90.8918C243.294 95.1282 251.635 93.8906 253.194 88.9402C253.58 87.2788 253.58 85.5559 253.194 83.8946C253.912 83.8946 256.065 83.1568 256.313 83.0854C258.02 86.7744 258.515 86.9886 260.495 90.9632C260.223 91.1774 259.778 91.5344 259.406 91.7724C257.649 92.891 257.278 92.7006 257.377 93.1766C257.406 93.271 257.469 93.3522 257.556 93.4047C257.643 93.4573 257.746 93.4777 257.847 93.4622C258.886 93.3194 259.901 93.0474 260.867 92.653C261.445 92.4456 261.921 92.0382 262.203 91.5106C262.896 90.0112 259.06 84.3706 257.55 82.6808C257.847 82.6808 258.54 82.2048 259.06 81.943C259.753 84.6086 260.223 86.703 262.896 87.7502C263.669 88.0306 264.492 88.1583 265.317 88.1256C266.142 88.0929 266.952 87.9004 267.698 87.5598C268.094 91.7486 268.019 98.5554 265.94 102.268C264.876 104.196 262.253 104.934 260.57 106.528C260.075 106.981 260.396 107.623 260.57 108.313C263.317 115.668 263.366 115.644 263.218 116.596C262.49 120.547 261.472 124.444 260.174 128.258C259.555 127.996 252.6 124.45 238.988 119.357C238.567 116.667 236.315 102.316 235.597 99.674C235.646 98.7458 235.523 98.5316 234.087 97.9128V98.0318ZM251.412 88.3214C250.62 90.9156 246.883 92.0342 244.21 91.3202C241.537 90.6062 241.364 89.2972 240.101 86.2032C239.51 85.0212 239.101 83.7623 238.889 82.4666C239.705 81.6098 248.64 79.8486 249.754 79.682C251.316 82.2517 251.902 85.2633 251.412 88.2024V88.3214ZM154.565 231.217C153.625 232.097 154.887 234.977 155.085 237.476C155.085 237.69 155.085 238.618 154.937 238.69C153.575 239.118 152.313 237.143 151.546 235.953C150.779 234.763 150.011 233.144 148.799 233.573C146.324 234.691 140.582 242.022 138.329 242.783C137.191 240.689 143.7 234.715 143.923 234.382C144.018 234.229 144.068 234.054 144.068 233.875C144.067 233.697 144.015 233.522 143.918 233.37C143.821 233.218 143.683 233.094 143.518 233.012C143.353 232.931 143.168 232.894 142.982 232.906C142.537 232.906 142.24 233.287 141.547 233.882C139.439 235.86 137.026 237.514 134.394 238.785C136.781 236.152 139.335 233.664 142.042 231.336C142.176 231.203 142.27 231.039 142.314 230.86C142.314 230.86 141.794 229.598 140.78 230.098C139.344 230.86 132.365 234.739 130.162 235.739C129.865 235.548 130.038 235.263 130.162 234.977C133.652 230.86 141.324 225.862 146.027 222.696C146.579 222.15 147.038 221.523 147.388 220.84C150.645 223.754 154.119 226.434 157.783 228.86C156.654 229.572 155.579 230.359 154.565 231.217ZM212.159 252.851C211.614 252.518 211.218 252.208 211.144 251.78C209.783 242.069 217.356 187.044 217.232 184.878C217.232 184.751 217.206 184.625 217.155 184.508C217.104 184.391 217.028 184.285 216.934 184.196C216.839 184.108 216.727 184.038 216.604 183.991C216.481 183.945 216.35 183.923 216.218 183.926C214.955 183.926 217.183 183.926 185.651 212.962C183.572 214.842 167.683 229.455 165.035 230.431C161.396 230.169 147.71 219.674 145.482 216.365C149.789 207.988 202.011 139.063 220.079 128.52C221.465 127.71 223.841 126.449 226.439 125.116C227.338 125.931 228.307 126.672 229.335 127.33C235.077 132.566 243.071 139.087 249.135 143.99L244.408 153.01C244.336 153.129 244.299 153.265 244.299 153.402C244.299 153.54 244.336 153.676 244.408 153.795C282.795 206.75 282.226 206.155 282.473 206.155C284.934 218.392 286.465 230.785 287.052 243.236C287.052 246.591 287.052 246.306 287.201 246.068C287.349 245.83 287.201 246.234 287.201 246.234C281.211 252.518 221.935 258.372 212.159 252.851ZM348.977 174.001C337.765 175.501 325.093 173.264 322.643 173.168C321.281 166.824 318.568 160.819 314.673 155.533C314.614 155.456 314.526 155.403 314.428 155.385C314.33 155.368 314.229 155.386 314.144 155.437C314.06 155.488 313.999 155.568 313.973 155.661C313.947 155.754 313.958 155.852 314.005 155.937C315.44 158.746 320.242 170.86 321.43 173.811C321.059 174.953 332.617 220.911 329.35 227.099C326.429 232.692 309.426 239.737 303.288 241.76C302.075 228.51 300.092 215.336 297.348 202.3C298.19 195.445 297.101 154.7 296.779 139.634C296.77 139.459 296.709 139.29 296.604 139.147C296.498 139.004 296.353 138.892 296.185 138.825L285.072 134.327C285.022 128.671 284.65 123.022 283.958 117.405C311.703 122.022 344.027 137.278 346.724 137.302C350.635 137.302 379.691 115.882 385.706 115.025C388.379 114.62 399.863 124.259 401.199 126.925C389.468 142.681 368.851 163.387 359.297 170.55C356.22 172.529 352.667 173.717 348.977 174.001Z" fill="#5077FF"/>
<path d="M248.863 83.5614C248.832 83.4051 248.769 83.2562 248.678 83.1232C248.588 82.9902 248.471 82.8757 248.334 82.7862C248.197 82.6966 248.043 82.6339 247.881 82.6016C247.719 82.5692 247.552 82.5678 247.39 82.5975C247.227 82.6272 247.073 82.6874 246.934 82.7746C246.796 82.8618 246.677 82.9744 246.584 83.1059C246.491 83.2374 246.425 83.3852 246.392 83.541C246.358 83.6967 246.357 83.8573 246.388 84.0136C246.883 86.3936 246.982 86.941 248.071 86.941C248.276 86.9417 248.479 86.893 248.66 86.7993C248.842 86.7056 248.996 86.5699 249.109 86.4045C249.222 86.2391 249.29 86.0492 249.308 85.8519C249.325 85.6547 249.291 85.4564 249.209 85.275C249.135 84.8942 248.912 83.7756 248.863 83.5614ZM256.436 99.317C258.045 99.7692 259.579 99.0314 259.53 98.6506C259.48 98.2698 259.53 98.4602 257.352 97.6748C255.892 97.1512 254.283 95.2948 253.714 95.5804C253.144 95.866 254.011 97.3892 254.209 97.6748C254.738 98.4473 255.523 99.0258 256.436 99.317ZM301.704 76.707C298.462 89.7732 296.086 100.864 295.69 103.077C295.427 104.04 295.376 105.046 295.541 106.029C296.853 108.718 313.807 114.025 315.96 112.978C318.113 111.931 323.707 99.8168 330.216 87.3218C334.203 87.4443 338.193 87.1651 342.121 86.4888C346.256 85.7593 350.28 84.536 354.1 82.8474C362.465 79.1346 371.623 63.2362 372.86 55.2394C373.788 46.5573 371.876 37.813 367.39 30.2256C346.625 -4.40341 285.715 14.232 290.665 52.6928C292.079 61.4933 295.887 69.7781 301.704 76.707ZM316.801 105.053C316.801 105.434 316.356 105.386 314.326 105.053C310.175 104.551 306.156 103.317 302.471 101.411C300.739 100.507 300.268 100.317 300.442 99.912C300.615 99.5074 300.986 99.6502 303.659 100.364C303.907 100.364 311.579 102.744 313.782 103.482C316.628 104.72 316.801 104.72 316.801 105.053ZM316.356 66.3302C318.999 66.462 321.632 65.9374 324.004 64.807C326.207 65.8337 328.591 66.4552 331.033 66.6396C326.875 74.089 318.435 89.2734 315.712 97.3654L305.218 94.5808C307.693 88.726 313.163 75.0172 316.306 66.3302H316.356ZM315.49 64.3548C313.642 64.0864 311.937 63.2426 310.636 61.9529C309.335 60.6632 308.51 58.9987 308.287 57.2148C307.594 52.4548 310.762 47.1236 315.539 48.385C318.534 49.1704 318.905 51.4552 318.385 54.335C317.94 56.4294 316.331 61.6892 315.44 64.2596L315.49 64.3548ZM322.222 58.6428C322.486 57.0854 323.093 55.6004 324.004 54.2874C324.437 53.5716 325.07 52.987 325.831 52.5999C326.592 52.2129 327.451 52.0389 328.31 52.0978C330.142 52.6214 330.934 55.9534 329.424 58.0478C327.973 59.8994 326.167 61.4667 324.103 62.665C323.392 62.2642 322.827 61.6639 322.482 60.9449C322.136 60.2259 322.028 59.4226 322.172 58.6428H322.222ZM299.476 28.393C310.564 15.5648 331.429 10.4716 346.501 15.7552C354.689 18.458 361.577 23.9306 365.881 31.1538C370.148 38.3737 371.973 46.6915 371.103 54.9538C369.964 62.3556 361.203 77.7304 353.506 81.1338C346.468 84.2207 338.789 85.7186 331.057 85.513C330.216 85.513 329.325 85.513 329.003 86.0842C327.543 88.9402 324.87 94.4618 322.246 99.6502C320.435 98.809 318.556 98.1086 316.628 97.5558C319.499 89.6542 328.558 74.1366 332.864 66.6158C336.595 66.9232 340.346 66.3002 343.754 64.807C344.675 64.3409 345.438 63.632 345.955 62.7634C346.471 61.8948 346.719 60.9025 346.67 59.9031C346.62 58.9036 346.276 57.9384 345.676 57.1208C345.076 56.3032 344.246 55.667 343.284 55.287C339.448 53.4782 336.007 57.8098 334.003 61.4512C333.458 62.4032 332.839 63.5218 332.146 64.7832C330.144 64.6567 328.17 64.2642 326.281 63.617C328.163 62.345 329.832 60.804 331.231 59.0474C332.014 57.9094 332.411 56.5657 332.367 55.2015C332.323 53.8374 331.839 52.5201 330.983 51.4314C330.311 50.6805 329.377 50.1913 328.356 50.0554C327.335 49.9196 326.298 50.1465 325.439 50.6936C323.706 51.7178 322.317 53.2012 321.439 54.9659C320.561 56.7306 320.231 58.7015 320.489 60.642C320.758 61.7373 321.372 62.7263 322.246 63.4742C320.623 64.1208 318.88 64.4446 317.123 64.4262C318.113 61.6178 319.722 56.5484 320.143 54.4778C320.406 53.2973 320.465 52.0829 320.316 50.884C320.124 49.8548 319.628 48.9007 318.886 48.1364C318.144 47.3722 317.188 46.8304 316.133 46.5762C310.119 44.934 305.689 51.3362 306.555 57.31C306.799 59.4508 307.755 61.4588 309.28 63.0364C310.804 64.6139 312.817 65.6771 315.019 66.0684C311.851 74.6364 306.901 88.4642 304.426 94.3666L298.981 93.01C302.471 76.1596 302.892 76.5642 302.397 76.35C296.773 69.4552 293.175 61.2365 291.977 52.55C291.394 48.2428 291.76 43.8658 293.052 39.7037C294.344 35.5416 296.533 31.6878 299.476 28.393ZM333.829 64.926C335.562 61.9034 339.027 55.287 342.393 56.9054C343.066 57.1662 343.652 57.5989 344.089 58.1568C344.525 58.7146 344.794 59.3764 344.868 60.0708C344.818 64.2596 338.037 64.9974 333.73 64.926H333.829ZM428.572 75.4218C431.555 73.735 435.078 73.1592 438.472 73.8034C442.201 73.8675 445.763 75.3013 448.428 77.8105C451.092 80.3198 452.658 83.7143 452.803 87.298C450.56 86.0469 447.938 85.5762 445.378 85.9652C439.165 86.4888 431.047 89.7256 432.136 95.4852C433.027 100.245 439.561 99.6026 444.511 98.3174C449.461 97.0322 453.397 94.6998 454.411 90.1064C460.426 94.319 461.836 101.697 462.084 108.908C462.084 109.009 462.125 109.106 462.2 109.178C462.274 109.249 462.375 109.289 462.48 109.289C462.585 109.289 462.686 109.249 462.76 109.178C462.834 109.106 462.876 109.009 462.876 108.908C463.049 100.84 461.539 92.9386 454.684 88.3452C454.754 86.2788 454.388 84.2202 453.607 82.2939C452.826 80.3676 451.647 78.6138 450.14 77.1386C448.634 75.6634 446.832 74.4975 444.843 73.7115C442.855 72.9254 440.721 72.5357 438.571 72.5658C435.135 72.0833 431.633 72.7739 428.671 74.5174C427.756 74.9458 428.176 75.5884 428.572 75.4218ZM451.144 92.4864C448.348 96.0088 440.428 97.8414 436.765 97.2464C435.403 97.0322 434.29 96.4848 433.993 95.1282C433.102 90.3682 441.64 87.774 446.739 87.6074C448.815 87.4544 450.886 87.9647 452.629 89.0592C452.442 90.3035 451.931 91.4823 451.144 92.4864ZM417.237 47.5996C419.885 44.458 418.103 38.984 410.703 38.9602C407.832 38.9602 406.446 41.7686 406.644 44.458C407.089 50.8602 414.589 50.6698 417.237 47.5996ZM408.376 44.339C408.376 42.7682 409.144 40.7214 410.851 40.7452C414.836 40.7452 416.668 42.5302 416.668 44.5056C416.569 49.0038 408.055 51.3362 408.376 44.339ZM407.362 314.16C385.606 305.806 375.508 346.242 357.738 380.99C357.625 382.451 357.675 383.919 357.886 385.369C357.886 389.011 358.307 413.12 360.51 415.857C361.104 416.952 363.604 415.857 364.767 415.167C374.646 409.285 383.957 402.563 392.586 395.08C392.659 394.999 392.715 394.904 392.749 394.802C392.783 394.699 392.795 394.591 392.784 394.485C397.387 388.178 414.638 355.334 418.821 338.864C421.741 327.202 418.846 318.515 407.362 314.16ZM415.133 344.386C403.486 342.95 392.226 339.414 381.943 333.961C387.735 323.418 394.888 311.399 406.693 315.921C419.836 320.943 419.563 331.343 415.133 344.314V344.386ZM373.949 406.266C373.189 405.653 372.359 405.126 371.474 404.695C368.13 403.06 364.265 402.703 360.658 403.695C360.411 400.863 359 382.442 359 382.275C377.538 388.796 371.821 385.964 390.185 394.746C388.254 396.508 381.003 401.387 373.949 406.218V406.266ZM386.72 337.388C389.134 338.657 391.612 339.808 394.145 340.839C388.472 349.408 383.459 358.365 379.147 367.638C374.989 375.992 375.137 375.944 370.905 385.06C368.43 384.298 365.955 383.584 363.48 382.87C366.153 377.753 385.161 340.34 386.72 337.341V337.388ZM371.87 385.298C379.914 371.422 388.106 354.167 395.135 341.149C397.61 342.148 400.085 342.958 402.56 343.672C401.248 346.052 397.412 352.382 396.397 354.215C395.383 356.048 385.21 375.326 384.493 376.801C383.354 379.181 380.236 385.821 379.27 387.94C376.746 386.869 374.32 386.059 371.771 385.25L371.87 385.298ZM380.161 388.249C381.671 385.607 387.883 374.516 388.651 373.088C389.814 370.875 402.783 345.385 403.501 343.91C405.778 344.528 408.178 345.052 409.713 345.338C405.183 357.238 392.14 380.157 387.438 391.462C383.156 389.534 382.191 389.058 380.062 388.201L380.161 388.249ZM381.671 334.651L386.101 337.031C377.173 351.652 369.397 366.895 362.836 382.632L359.124 381.537C373.504 352.073 374.172 348.217 381.572 334.604L381.671 334.651ZM391.868 393.533L388.131 391.819C392.165 384.203 404.788 364.663 410.554 345.504C411.94 345.742 413.302 345.956 414.613 346.123C408.253 362.442 400.616 378.275 391.769 393.485L391.868 393.533ZM314.326 408.979C315.313 408.193 316.018 407.13 316.342 405.939C316.666 404.747 316.593 403.488 316.133 402.339C315.923 400.68 315.132 399.14 313.891 397.972C312.649 396.803 311.031 396.076 309.302 395.91C307.574 395.743 305.838 396.148 304.38 397.057C302.923 397.966 301.83 399.325 301.283 400.911C298.115 398.935 294.675 396.841 291.383 394.842C293.858 391.676 301.135 393.08 301.877 395.675C301.893 395.776 301.951 395.866 302.037 395.926C302.123 395.987 302.23 396.012 302.335 395.996C302.44 395.98 302.534 395.925 302.597 395.842C302.659 395.76 302.685 395.657 302.669 395.556C302.298 391.414 293.338 388.987 289.725 393.866C286.532 391.986 282.572 389.701 279.256 387.963C282.102 385.583 288.463 386.916 289.156 389.391C289.188 389.476 289.251 389.547 289.333 389.591C289.415 389.635 289.51 389.65 289.602 389.633C289.694 389.616 289.777 389.568 289.836 389.497C289.895 389.427 289.925 389.339 289.923 389.249C289.601 385.393 281.31 382.799 277.548 387.035C275.972 386.186 274.314 385.484 272.598 384.941C272.284 384.816 271.94 384.781 271.606 384.84C271.272 384.899 270.963 385.05 270.717 385.274C264.455 392.771 243.343 412.239 233.592 414.5C233.347 414.536 233.116 414.633 232.922 414.782C232.728 414.93 232.578 415.126 232.488 415.348C232.398 415.57 232.37 415.81 232.407 416.046C232.445 416.282 232.546 416.504 232.701 416.69C234.842 418.78 237.294 420.553 239.977 421.95C237.502 424.33 235.572 426.472 234.136 428.019C233.394 428.78 232.998 443.346 233.641 446.559C233.737 446.873 233.948 447.144 234.235 447.321C237.354 449.367 277.523 466.075 281.632 463.838C284.379 462.338 317.173 429.518 317.692 428.519C318.484 426.948 318.212 416.476 318.163 412.287C317.965 411.026 315.514 409.669 314.326 408.979ZM235.126 440.419V435.111C245.398 439.871 268.91 449.582 277.82 452.295C280.097 453.009 280.295 452.914 281.483 452.295C288.289 448.106 312.322 422.069 316.727 418.094V423.116C303.362 435.992 280.666 458.554 280.246 457.269C277.795 457.126 237.255 441.371 235.126 440.419ZM313.708 400.958C314.597 402.4 315.075 404.042 315.094 405.718C315.085 406.252 314.949 406.776 314.696 407.251C314.442 407.725 314.079 408.137 313.633 408.455C311.554 407.122 307.619 404.647 302.966 401.744C305.515 396.912 311.183 396.841 313.609 400.958H313.708ZM234.508 416.19C245.051 413.191 265.074 394.627 271.806 386.583C273.426 387.017 274.988 387.632 276.459 388.416C273.984 392.842 276.632 397.698 277.573 397.007C278.092 396.627 277.152 396.484 277.003 394.151C276.94 392.448 277.341 390.757 278.167 389.249C281.582 390.962 285.592 393.199 288.982 395.08C286.903 399.53 289.403 403.933 290.269 403.291C291.136 402.648 289.873 402.791 289.725 400.458C289.664 398.929 289.969 397.406 290.616 396.008C294.106 397.983 297.67 400.03 300.937 401.958C300.433 403.144 300.233 404.429 300.354 405.704C300.474 406.98 300.912 408.209 301.63 409.288C301.662 409.329 301.703 409.363 301.749 409.388C301.795 409.414 301.846 409.431 301.899 409.437C301.952 409.444 302.005 409.44 302.057 409.427C302.108 409.414 302.157 409.391 302.199 409.36C302.241 409.328 302.276 409.289 302.303 409.245C302.33 409.201 302.347 409.151 302.354 409.101C302.361 409.05 302.357 408.998 302.343 408.949C302.329 408.899 302.306 408.853 302.273 408.812C301.828 407.867 301.609 406.837 301.63 405.8C301.651 404.762 301.913 403.742 302.397 402.815C308.164 406.194 312.817 409.026 314.252 409.955C313.98 410.193 288.166 432.279 279.379 438.848C273.613 437.396 243.343 422.949 234.508 416.19ZM235.448 429.447C246.66 434.207 272.128 445.25 277.993 446.321C279.008 446.511 279.404 446.583 281.335 445.107C289.576 438.753 316.381 411.787 316.628 412.073C316.64 412.144 316.64 412.216 316.628 412.287V417.047C311.109 421.307 280.419 452.295 279.924 450.819C277.449 450.819 237.23 435.04 235.176 434.159C235.126 433.16 235.349 430.494 235.448 429.447ZM280.518 462.243C278.043 463.6 240.349 448.868 235.3 445.869C235.11 444.352 235.019 442.826 235.027 441.299C245.868 446.44 277.399 459.244 280.295 459.125C284.527 458.911 314.45 426.519 316.579 424.258C316.603 425.474 316.478 426.688 316.207 427.876C315.787 428.661 282.151 461.363 280.518 462.243ZM75.464 328.083C75.6373 330.629 75.761 332.843 75.761 334.913C75.761 335.229 75.8914 335.531 76.1235 335.755C76.3556 335.978 76.6703 336.103 76.9985 336.103C77.3267 336.103 77.6415 335.978 77.8736 335.755C78.1057 335.531 78.236 335.229 78.236 334.913C78.236 332.7 78.1123 330.51 77.939 327.916C77.9161 327.6 77.7637 327.306 77.5153 327.099C77.267 326.891 76.9431 326.787 76.6149 326.809C76.2867 326.831 75.9811 326.978 75.7652 327.217C75.5494 327.455 75.4411 327.767 75.464 328.083ZM452.58 280.364C452.418 280.373 452.26 280.413 452.115 280.481C451.97 280.55 451.84 280.646 451.734 280.763C451.628 280.881 451.547 281.018 451.497 281.166C451.447 281.314 451.428 281.47 451.441 281.625C451.59 283.815 451.738 286.171 451.738 288.456C451.738 288.771 451.869 289.074 452.101 289.297C452.333 289.52 452.648 289.646 452.976 289.646C453.304 289.646 453.619 289.52 453.851 289.297C454.083 289.074 454.213 288.771 454.213 288.456C454.213 286.076 454.065 283.696 453.892 281.458C453.882 281.303 453.841 281.151 453.769 281.011C453.698 280.872 453.598 280.747 453.476 280.645C453.353 280.543 453.211 280.466 453.057 280.417C452.903 280.369 452.741 280.351 452.58 280.364ZM69.0538 322.156C69.382 322.156 69.6968 322.031 69.9288 321.808C70.1609 321.585 70.2913 321.282 70.2913 320.966C70.2913 320.651 70.1609 320.348 69.9288 320.125C69.6968 319.902 69.382 319.776 69.0538 319.776C66.059 319.776 63.5593 319.991 61.0843 319.943C60.7538 319.943 60.4364 320.068 60.2004 320.29C59.9644 320.513 59.8285 320.815 59.822 321.133C59.822 321.449 59.9524 321.751 60.1845 321.974C60.4166 322.198 60.7313 322.323 61.0595 322.323C63.6088 322.371 66.4055 322.275 69.0538 322.156ZM444.907 273.319C441.937 273.319 439.437 273.485 436.938 273.509C436.61 273.509 436.295 273.635 436.063 273.858C435.831 274.081 435.7 274.384 435.7 274.699C435.7 275.015 435.831 275.317 436.063 275.541C436.295 275.764 436.61 275.889 436.938 275.889C439.611 275.889 442.383 275.889 445.056 275.699C445.384 275.68 445.691 275.536 445.909 275.3C446.127 275.063 446.239 274.753 446.219 274.437C446.199 274.122 446.05 273.827 445.804 273.617C445.558 273.407 445.235 273.3 444.907 273.319ZM74.7958 307.448C74.9443 309.638 75.0928 311.994 75.0928 314.279C75.0991 314.592 75.2315 314.891 75.4623 315.113C75.693 315.335 76.0041 315.462 76.3303 315.469C76.6585 315.469 76.9733 315.343 77.2053 315.12C77.4374 314.897 77.5678 314.594 77.5678 314.279C77.5678 311.899 77.4193 309.519 77.2708 307.281C77.2478 306.966 77.0954 306.672 76.8471 306.464C76.5988 306.257 76.2749 306.153 75.9467 306.175C75.6185 306.197 75.3128 306.343 75.097 306.582C74.8812 306.821 74.7728 307.132 74.7958 307.448ZM453.545 267.821C453.545 265.441 453.397 263.061 453.223 260.824C453.2 260.508 453.048 260.214 452.8 260.007C452.551 259.799 452.227 259.695 451.899 259.717C451.571 259.739 451.265 259.886 451.049 260.125C450.834 260.363 450.725 260.675 450.748 260.99C450.897 263.18 451.045 265.536 451.045 267.821C451.045 268.137 451.176 268.439 451.408 268.662C451.64 268.886 451.955 269.011 452.283 269.011C452.613 269.011 452.931 268.886 453.167 268.664C453.403 268.441 453.539 268.139 453.545 267.821ZM93.0613 321.847C93.2238 321.841 93.3835 321.804 93.5313 321.738C93.679 321.673 93.8118 321.58 93.9221 321.465C94.0325 321.35 94.1182 321.215 94.1743 321.069C94.2304 320.922 94.2559 320.766 94.2493 320.609C94.2243 320.298 94.0778 320.007 93.839 319.795C93.6003 319.583 93.2871 319.466 92.9623 319.467C89.9675 319.586 87.4678 319.681 84.968 319.634C84.6398 319.634 84.3251 319.759 84.093 319.982C83.8609 320.205 83.7305 320.508 83.7305 320.824C83.7305 321.139 83.8609 321.442 84.093 321.665C84.3251 321.888 84.6398 322.014 84.968 322.014C87.6163 322.061 90.3883 321.966 93.0613 321.847ZM468.915 273.009C466.44 273.128 463.693 273.2 460.945 273.2C460.782 273.193 460.619 273.219 460.466 273.275C460.313 273.33 460.173 273.415 460.056 273.524C459.938 273.633 459.844 273.764 459.78 273.908C459.716 274.053 459.683 274.209 459.683 274.366C459.683 274.684 459.813 274.989 460.044 275.216C460.275 275.443 460.59 275.574 460.921 275.58C463.742 275.58 466.019 275.58 469.014 275.389C469.176 275.383 469.336 275.346 469.484 275.281C469.631 275.215 469.764 275.122 469.875 275.007C469.985 274.892 470.071 274.758 470.127 274.611C470.183 274.464 470.208 274.308 470.202 274.152C470.171 273.842 470.023 273.555 469.786 273.344C469.548 273.133 469.238 273.014 468.915 273.009ZM36.1858 251.328C36.5075 251.566 106.303 241.617 109.297 239.856C109.463 239.74 109.596 239.585 109.682 239.406C109.769 239.227 109.807 239.03 109.792 238.833C109.792 235.762 105.61 206.941 103.605 199.753C103.357 198.872 103.11 197.992 102.541 197.682C98.7538 195.493 32.0278 207.583 28.043 210.058C27.935 210.12 27.8417 210.202 27.7692 210.301C27.6967 210.399 27.6467 210.511 27.6223 210.63C26.7808 213.509 34.0325 249.9 36.1858 251.328ZM29.132 211.201C33.884 209.13 94.4473 198.468 101.377 199.301C103.06 203.466 107.565 233.977 107.862 238.452C104.422 239.428 37.1263 250.542 36.8788 250.59C36.6313 250.637 36.6065 250.923 36.0868 249.424C33.9088 243.14 29.0083 216.58 29.132 211.201Z" fill="black"/>
<path d="M114.743 241.974C114.877 241.734 114.937 241.461 114.916 241.189C114.916 237.405 109.273 195.398 107.268 192.042C107.111 191.794 106.888 191.591 106.623 191.454C106.358 191.316 106.06 191.248 105.758 191.256C97.4671 190.281 27.5236 203.418 22.9201 206.488C22.2766 206.917 22.3756 207.988 22.4498 209.13C22.8458 215.39 29.8748 256.564 32.3498 256.326C32.6221 256.326 32.5231 256.135 31.8796 257.397C28.0186 265.036 20.6926 289.503 20.8411 294.429C20.8411 296.5 21.3361 299.189 23.4646 299.047C38.7353 297.238 113.604 285.814 135.137 281.554C135.978 281.387 136.523 280.649 136.498 279.435C136.244 277.413 135.606 275.453 134.617 273.652C131.597 268.202 119.074 246.615 114.743 241.974ZM32.4983 255.588C30.5678 253.208 23.4646 212.2 24.0091 207.655C29.4541 204.941 98.4571 192.113 105.684 193.16C107.664 198.396 112.787 236.215 113.109 240.76C104.348 243.664 43.6853 253.089 32.4983 255.588ZM33.5873 256.302C35.6663 255.802 106.476 244.402 112.961 242.76C116.5 245.925 132.488 273.271 133.528 275.604C119.321 277.984 35.0476 291.526 22.6478 293.335C22.8211 286.123 30.5183 260.919 33.5873 256.302Z" fill="black"/>
<path d="M42.8927 280.983C45.046 280.673 90.7345 275.39 107.243 271.082C107.344 271.057 107.432 270.994 107.485 270.907C107.538 270.82 107.554 270.716 107.527 270.618C107.501 270.52 107.436 270.436 107.345 270.385C107.254 270.334 107.146 270.319 107.045 270.344C103.802 270.987 64.252 276.056 42.8432 280.245C42.7841 280.235 42.7233 280.238 42.6655 280.253C42.6076 280.269 42.5543 280.297 42.5095 280.336C42.4646 280.374 42.4295 280.422 42.4067 280.475C42.3839 280.529 42.3741 280.587 42.3779 280.644C42.3818 280.702 42.3993 280.758 42.429 280.808C42.4588 280.858 42.5 280.901 42.5496 280.934C42.5992 280.967 42.6559 280.988 42.7153 280.996C42.7748 281.005 42.8354 281 42.8927 280.983ZM76.2805 115.382C75.3559 117.39 74.5785 119.458 73.954 121.57C73.9172 121.909 74.0144 122.249 74.2262 122.522C76.726 126.14 102.342 153.915 109.025 157.818C109.94 158.365 111.029 158.746 111.698 157.961C116.552 152.152 122.887 147.651 130.087 144.894C135.947 142.901 142.091 141.785 148.303 141.586C153.253 141.158 154.119 140.682 156.025 137.564C158.273 133.461 161.256 129.771 164.836 126.664C169.401 122.825 174.468 119.577 179.909 117.001C180.154 116.867 180.345 116.659 180.453 116.409C180.56 116.159 180.578 115.881 180.503 115.62C179.666 113.573 178.56 111.637 177.211 109.861C178.102 109.575 179.092 109.313 179.092 108.457C179.092 106.077 157.51 76.0409 151.52 70.3765C150.902 69.7815 150.011 68.9961 149.194 69.0437C136.819 69.7101 124.766 80.9437 117.786 90.7493C109.792 90.4637 104.619 89.7735 95.5112 93.4625C89.0814 96.0871 83.2844 99.9601 78.4832 104.839C77.7407 105.577 72.6917 110.718 72.6175 111.122C72.5432 111.527 72.6917 111.527 76.2805 115.382ZM175.28 114.716C164.96 116.406 158.376 124.664 153.525 133.637C151.372 137.635 151.57 137.826 149.293 137.778C145.311 137.561 141.317 137.705 137.363 138.207C134.464 138.623 131.612 139.309 128.849 140.253C122.563 142.395 115.361 149.25 111.524 154.343C111.443 154.448 111.339 154.535 111.22 154.598C111.102 154.662 110.97 154.7 110.834 154.712C110.699 154.723 110.562 154.706 110.434 154.663C110.305 154.62 110.188 154.552 110.089 154.462C102.045 146.489 87.814 132.495 80.6612 124.45C80.3147 124.093 80.9087 123.57 81.2552 123.95C85.8835 128.71 97.8377 140.111 110.658 152.51C114.989 147.203 121.672 140.777 128.28 138.54C131.884 137.304 135.633 136.504 139.442 136.16C143.01 135.899 146.592 135.899 150.159 136.16C151.619 134.541 158.846 116.168 175.231 114.121C175.279 114.155 175.318 114.199 175.346 114.249C175.374 114.3 175.39 114.356 175.392 114.413C175.395 114.47 175.384 114.527 175.36 114.579C175.336 114.632 175.301 114.678 175.256 114.716H175.28ZM149.169 70.9715C154.119 74.3035 174.266 102.983 176.889 108.004C172.337 109.391 167.942 111.217 163.772 113.455C159.823 115.358 156.365 118.085 153.65 121.437C150.936 124.788 149.033 128.68 148.08 132.828C139.195 118.929 126.795 103.625 118.553 92.3677C119.048 92.0583 132.958 71.8997 149.169 70.9715ZM96.0557 94.7715C105.089 91.2729 110.089 92.0821 117.563 92.3915C124.988 104.577 138.329 121.761 147.115 133.018C139.006 131.173 130.472 132.301 123.182 136.184C118.801 138.564 113.455 144.276 110.163 147.822C105.411 144.157 77.9882 116.073 73.5827 111.313C80.3642 103.935 86.626 98.3891 96.0557 94.6763V94.7715ZM50.7632 155.295C50.1515 154.882 49.4284 154.649 48.6815 154.624C47.9347 154.598 47.1962 154.782 46.5557 155.152C46.0893 155.352 45.6685 155.639 45.3172 155.995C44.9659 156.351 44.691 156.771 44.5083 157.23C44.3256 157.688 44.2386 158.177 44.2523 158.668C44.266 159.159 44.3801 159.642 44.5881 160.091C44.7961 160.539 45.094 160.944 45.4646 161.282C45.8353 161.619 46.2715 161.884 46.7484 162.059C47.2253 162.235 47.7335 162.319 48.244 162.306C48.7545 162.292 49.2573 162.183 49.7237 161.983C50.4688 161.826 51.1468 161.455 51.6678 160.92C52.1887 160.384 52.5281 159.709 52.6408 158.983C52.7536 158.258 52.6344 157.517 52.299 156.858C51.9637 156.199 51.4281 155.654 50.7632 155.295ZM49.1297 160.055C47.3972 160.579 46.3577 160.055 45.937 159.246C45.145 157.556 46.135 154.962 48.709 155.723C50.5157 156.366 51.976 159.293 49.1297 160.174V160.055ZM176.617 46.3861C177.335 47.7903 180.676 47.2667 182.136 46.8145C182.903 46.5765 183.398 46.3147 183.473 45.6007C183.695 43.8157 183.943 28.3457 183.101 26.8463C183.015 26.6891 182.881 26.56 182.718 26.4754C182.555 26.3907 182.37 26.3541 182.186 26.3703C179.545 26.3633 176.918 26.7322 174.389 27.4651C173.375 28.0601 175.726 44.8153 176.617 46.3861ZM174.909 28.0363C177.195 27.7218 179.508 27.6182 181.814 27.7269C181.963 29.4881 181.567 44.7439 181.542 44.9819C180.497 45.3422 179.38 45.4724 178.275 45.3627C178.102 44.8153 177.805 43.3397 177.434 41.4833C176.343 37.0475 175.5 32.5588 174.909 28.0363ZM48.3625 135.208C48.6 135.325 48.8629 135.386 49.1297 135.386C49.3965 135.386 49.6595 135.325 49.897 135.208C50.8532 134.641 51.6115 133.812 52.075 132.828C52.1379 132.67 52.1573 132.5 52.1313 132.333C52.1053 132.166 52.0347 132.009 51.9265 131.876C50.7385 130.519 37.7695 116.073 36.1855 116.977C34.2407 118.188 32.3955 119.54 30.6662 121.023C30.5965 121.083 30.5407 121.156 30.5023 121.238C30.464 121.32 30.4439 121.409 30.4435 121.499C30.394 122.737 44.7985 133.827 48.3625 135.208ZM36.4825 117.596C38.2892 118.857 44.3777 126.092 50.0207 132.495C49.778 132.862 49.4774 133.191 49.1297 133.47C43.1968 129.819 37.5322 125.779 32.176 121.38C33.5187 120.024 34.9577 118.76 36.4825 117.596ZM75.3647 65.0929C75.9092 55.8585 81.5027 51.5745 87.3437 50.4797C85.6855 56.3345 85.9577 63.9505 91.972 64.9263C94.843 65.3785 96.2537 63.9505 98.3327 62.2845C107.218 55.1445 100.04 48.0045 90.0167 48.5043C93.754 38.6511 102.392 30.6305 113.851 30.3687C113.956 30.3687 114.057 30.3286 114.131 30.2572C114.205 30.1858 114.247 30.0889 114.247 29.9879C114.247 29.8869 114.205 29.7901 114.131 29.7186C114.057 29.6472 113.956 29.6071 113.851 29.6071C101.476 29.3691 91.7492 37.9371 87.913 48.6471C81.3047 49.7419 74.746 54.5019 74.5727 64.9501C74.563 65.0001 74.5636 65.0515 74.5745 65.1013C74.5854 65.1511 74.6063 65.1983 74.6362 65.2403C74.6661 65.2823 74.7043 65.3182 74.7486 65.346C74.7929 65.3738 74.8425 65.3929 74.8945 65.4023C74.9465 65.4117 74.9999 65.4111 75.0517 65.4007C75.1035 65.3902 75.1526 65.37 75.1962 65.3413C75.2399 65.3125 75.2773 65.2758 75.3062 65.2332C75.3351 65.1906 75.355 65.1429 75.3647 65.0929ZM89.4475 50.1941C93.1352 49.9561 98.6297 51.0509 100.139 54.2639C101.006 56.0965 100.139 58.3575 97.0705 60.8327C96.2373 61.6354 95.2868 62.3169 94.249 62.8557C90.5365 64.3789 86.428 59.9759 89.4475 50.1941ZM96.526 386.798C94.1348 386.182 91.6397 386.032 89.1874 386.357C86.7351 386.682 84.3752 387.476 82.2467 388.691C80.1181 389.906 78.2638 391.519 76.7929 393.433C75.322 395.348 74.2642 397.526 73.6817 399.84C72.5822 404.647 73.5135 409.676 76.2705 413.823C79.0276 417.969 83.3847 420.893 88.3832 421.95C93.3818 423.007 98.6124 422.112 102.924 419.461C107.236 416.809 110.276 412.62 111.376 407.813C111.846 405.495 111.833 403.11 111.34 400.796C110.847 398.482 109.882 396.285 108.502 394.332C107.121 392.378 105.352 390.707 103.297 389.414C101.242 388.12 98.9404 387.231 96.526 386.798ZM104.174 406.195C103.181 410.003 100.803 413.344 97.4714 415.614C94.1396 417.884 90.0731 418.933 86.0072 418.571C82.2749 417.168 79.1764 414.545 77.257 411.163C75.3375 407.78 74.7201 403.855 75.5132 400.078C76.4393 396.177 78.7946 392.727 82.1485 390.358C85.5023 387.989 89.6307 386.861 93.7787 387.178C97.5479 388.676 100.647 391.404 102.53 394.882C104.414 398.361 104.961 402.366 104.075 406.195H104.174Z" fill="black"/>
<path d="M129.494 393.58C127.339 392.865 125.03 392.693 122.786 393.08C121.857 391.03 120.712 389.077 119.371 387.249C120.98 385.845 125.385 381.942 124.321 380.109C120.533 375.753 116.037 372.015 111.005 369.042C108.905 367.911 106.591 367.191 104.199 366.924C102.615 367.138 98.8531 373.064 98.0116 374.397C97.4671 374.397 95.5366 373.802 95.3881 373.731C95.3881 372.017 94.8684 365.829 93.2596 365.115C91.4606 364.478 89.5925 364.039 87.6909 363.806C85.9336 363.544 70.1184 366.329 68.9551 368.376C68.1879 369.756 69.9699 374.968 70.4896 376.42C69.1548 377.127 67.8729 377.922 66.6534 378.8C64.1784 380.49 64.8466 380.419 64.4011 380.228C63.8627 379.981 63.2858 379.82 62.6934 379.752C60.7163 378.638 58.3982 378.217 56.1346 378.562C53.8576 379.276 48.4869 391.034 47.6206 394.056C47.3371 394.818 47.2605 395.637 47.3979 396.436C47.9919 398.007 51.9519 399.268 53.6101 399.768C53.1522 402.83 53.1522 405.94 53.6101 409.002C51.4321 409.574 46.9029 410.859 47.1504 413.001C47.3979 415.143 53.1894 429.28 55.5901 430.399C56.9053 431.106 58.3596 431.541 59.8598 431.676C61.3601 431.812 62.8732 431.644 64.3021 431.184C65.1069 430.798 65.8841 430.36 66.6286 429.875C67.6186 430.589 68.6581 431.232 69.7224 431.85C68.9551 433.683 67.2474 437.777 67.7919 439.633C68.0641 440.609 68.8809 440.918 70.0194 441.323C73.1626 442.418 90.0916 446.321 92.6656 445.892C93.6309 445.75 94.1506 444.774 94.4476 443.846C94.9975 441.733 95.321 439.572 95.4129 437.396C96.6839 437.275 97.9478 437.093 99.1996 436.848C99.9641 438.142 100.942 439.308 102.095 440.299C103.358 441.156 104.422 440.728 105.857 439.847C106.55 440.704 107.59 441.894 108.704 442.013C111.5 442.322 123.059 431.85 124.247 429.708C125.237 427.923 121.623 424.734 120.014 423.33C121.755 420.812 123.121 418.072 124.073 415.19C125.858 415.449 127.665 415.545 129.469 415.476C130.286 415.476 131.226 415.19 131.573 414.453C133.082 411.144 132.637 398.602 131.573 395.413C131.424 394.484 130.31 393.866 129.494 393.58ZM130.088 395.77C130.929 398.864 131.201 410.549 129.964 413.572C127.824 413.775 125.665 413.679 123.554 413.286C123.328 413.249 123.097 413.295 122.904 413.414C122.712 413.533 122.573 413.716 122.514 413.929C121.528 417.147 119.998 420.186 117.985 422.925C117.841 423.107 117.777 423.335 117.804 423.561C117.832 423.788 117.95 423.995 118.133 424.139C119.87 425.463 121.345 427.075 122.489 428.899C121.252 430.851 111.575 439.371 108.902 440.085C108.506 440.085 107.417 438.657 107.144 438.276C106.23 436.955 105.403 435.58 104.669 434.159C104.562 433.952 104.378 433.791 104.154 433.707C103.93 433.623 103.681 433.623 103.457 433.707C96.2791 436.301 93.5566 434.778 93.5566 436.491C93.5598 439.057 93.1251 441.606 92.2696 444.036C86.4532 443.428 80.7254 442.199 75.1921 440.371C75.4594 437.83 76.197 435.355 77.3701 433.064C78.1126 431.47 75.1426 431.922 69.5986 426.495C69.4202 426.337 69.1859 426.248 68.9427 426.248C68.6995 426.248 68.4653 426.337 68.2869 426.495C65.8119 428.447 62.5944 430.351 61.9509 430.042C60.6886 429.447 54.8724 416.761 54.5259 414.191C56.2862 413.011 58.2846 412.2 60.3916 411.811C60.6163 411.75 60.8104 411.612 60.9378 411.424C61.0652 411.236 61.1174 411.01 61.0846 410.787C60.4781 407.417 60.4781 403.972 61.0846 400.601C61.1224 400.394 61.0771 400.18 60.9577 400.003C60.8383 399.827 60.6537 399.7 60.4411 399.649C58.5753 399.179 56.779 398.483 55.0951 397.578C54.5506 397.198 54.6001 397.221 54.6496 396.817C56.2516 391.261 58.8207 386.006 62.2479 381.275C63.5844 380.918 67.1979 383.465 68.4354 384.369C68.5647 384.49 68.7378 384.558 68.918 384.558C69.0982 384.558 69.2713 384.49 69.4006 384.369C70.5378 383.235 71.7623 382.185 73.0636 381.228C76.8256 378.491 77.8404 378.848 77.5186 377.896C76.3809 375.508 75.7418 372.928 75.6376 370.304C76.0212 369.997 76.4565 369.755 76.9246 369.59C79.2353 368.711 81.6093 367.995 84.0279 367.448C86.9595 366.662 89.9726 366.191 93.0121 366.043C93.5319 366.258 94.0021 368.423 94.1259 369.09C95.0416 373.85 94.4229 374.826 95.1406 374.897C102.194 375.563 103.63 377.444 104.125 376.611C105.497 374.303 107.097 372.127 108.902 370.113C109.421 369.613 109.397 369.375 110.956 370.232C115.614 373.159 119.786 376.746 123.331 380.871C123.702 381.49 120.485 384.774 118.133 386.702C117.317 387.392 118.48 387.701 120.608 391.605C122.737 395.508 122.242 396.603 123.38 396.365C125.575 395.859 127.834 395.659 130.088 395.77ZM473.593 196.897C468.405 194.859 462.964 193.475 457.406 192.779C453.347 192.161 448.571 191.542 444.536 191.042C448.422 185.758 459.931 172.383 461.861 169.122C462.406 168.242 461.366 167.004 460.599 166.266C456.293 161.839 447.977 160.173 441.591 159.221C437.928 158.65 422.633 156.841 420.034 158.031C416.915 159.459 393.848 192.779 393.155 197.849C393.155 198.706 393.452 199.039 394.319 199.348C397.957 200.633 414.366 202.633 418.029 203.466C413.079 211.796 391.076 239.951 388.923 243.926C388.403 244.925 388.725 245.52 389.344 245.711C391.571 246.561 393.863 247.245 396.2 247.757C397.091 248.019 399.046 246.853 401.892 245.187C414.663 237.809 469.46 203.013 473.667 198.515C473.783 198.41 473.874 198.281 473.934 198.139C473.994 197.996 474.022 197.843 474.015 197.69C474.008 197.536 473.966 197.386 473.894 197.249C473.821 197.112 473.718 196.992 473.593 196.897ZM420.405 225.457C399.368 238.809 392.264 242.712 392.017 242.878C395.408 237.904 416.47 210.153 420.083 203.513C420.146 203.385 420.179 203.245 420.178 203.103C420.177 202.961 420.144 202.821 420.08 202.694C420.016 202.566 419.923 202.454 419.808 202.365C419.693 202.276 419.559 202.213 419.415 202.18C416.94 201.324 398.922 199.467 394.665 198.015C395.21 193.589 417.683 160.126 420.405 158.793C423.128 157.46 449.536 160.483 454.486 163.886C451.887 168.765 437.532 185.854 435.206 189.828C434.735 190.637 434.587 191.423 435.503 191.637C436.418 191.851 459.683 194.469 464.757 196.064C458.57 201.038 427.335 220.982 420.405 225.362V225.457ZM261.634 79.9437C261.634 80.1579 261.782 80.4197 262.154 81.8001C262.251 82.0995 262.465 82.3511 262.751 82.5019C263.037 82.6528 263.373 82.6913 263.688 82.6093C264.003 82.5209 264.269 82.3158 264.427 82.0391C264.584 81.7624 264.622 81.4367 264.53 81.1337C264.282 80.2055 264.059 79.4201 263.911 79.0393C263.767 78.7779 263.526 78.5776 263.237 78.4774C262.948 78.3771 262.63 78.3842 262.345 78.4971C262.061 78.6101 261.831 78.8208 261.699 79.0883C261.567 79.3557 261.544 79.6607 261.634 79.9437Z" fill="black"/>
</svg>
