<svg width="74" height="98" viewBox="0 0 74 98" fill="none" xmlns="http://www.w3.org/2000/svg">
<path d="M31.7126 11.2639C36.2791 14.2115 38.2437 12.5798 37.7658 6.31606C37.3411 0.947205 33.0932 -2.15834 31.6064 1.73674C30.2259 5.26336 30.332 10.3691 31.7126 11.2639Z" fill="#5077FF"/>
<path d="M19.3404 15.8435C21.5705 17.0541 28.6857 17.212 30.1725 16.1593C33.4115 13.8433 23.1104 10.7904 18.3846 12.6853C16.6855 13.3169 17.1102 14.6328 19.3404 15.8435Z" fill="#5077FF"/>
<path d="M30.2257 18.949C27.0397 24.0547 32.6682 33.0554 36.332 28.6866C37.3939 27.4234 36.8093 21.2649 35.4819 19.949C34.1544 18.6858 30.8097 18.0015 30.2257 18.949Z" fill="#5077FF"/>
<path d="M46.3675 16.7908C52.3146 16.0012 52.8456 15.8433 52.8456 14.738C52.8456 12.3693 46.4737 11.3692 41.0046 12.7904C34.1549 14.6853 38.4559 17.8435 46.3675 16.7908Z" fill="#5077FF"/>
<path d="M33.4115 78.2172C30.7035 76.9539 21.4644 77.0066 21.4644 78.3225C21.4644 80.0595 24.5441 81.2701 29.5353 81.5333C35.8541 81.7965 37.7125 80.2174 33.4115 78.2172Z" fill="#5077FF"/>
<path d="M66.2261 21.5278C59.2171 24.4227 51.1993 31.2128 41.0043 35.95C32.9334 39.6872 28.1545 39.5293 22.6854 36.529C16.2073 33.0551 12.809 33.7393 15.9419 37.8976C20.6145 44.1086 19.7649 51.8462 13.7648 57.3203C8.61427 62.0049 14.2953 64.8999 22.2069 61.6364C27.4637 59.4784 28.0483 59.531 34.5263 62.8997C42.3849 67.0053 44.031 66.7948 44.2965 61.847C44.5089 56.8992 46.0487 51.8461 48.3319 48.5827C51.8895 43.3717 64.8456 29.9495 69.1466 27.0019C74.9874 23.0016 74.8281 18.0011 66.2261 21.5278ZM40.1017 44.8455C37.8715 48.1616 36.7565 51.3198 36.491 54.8464C36.0662 60.8469 36.2786 57.4782 27.4642 55.6886C24.4907 55.1096 24.1721 54.899 24.4376 53.9516C25.9775 48.6353 25.9775 46.4773 24.3845 42.319C24.1721 41.7926 25.0217 41.8979 27.4642 42.6875C29.3227 43.2664 32.1369 43.7928 33.7299 43.8455C37.0751 43.9507 39.5176 43.4244 41.2698 43.1086L40.1017 44.8455Z" fill="#5077FF"/>
<path d="M21.4108 76.6903C22.6852 73.269 22.6326 70.5845 21.252 69.216C19.606 67.5843 16.4732 67.3737 15.6767 68.7949C15.0395 69.9529 15.4112 71.3741 15.5174 74.0585C15.6767 77.4272 20.3488 79.5327 21.4108 76.6903Z" fill="#5077FF"/>
<path d="M15.9421 84.6911C14.8801 86.3755 15.4105 94.8499 16.6318 95.85C20.5611 99.0082 22.7387 96.1658 21.5174 89.4284C20.7209 85.1122 17.4288 82.3225 15.9421 84.6911Z" fill="#5077FF"/>
<path d="M1.97693 77.1641C0.490179 77.4799 0.437079 78.48 1.92383 79.7433C3.51678 81.1644 13.3937 81.5855 13.8715 80.217C14.8273 77.7957 7.7121 75.9535 1.97745 77.1641H1.97693Z" fill="#5077FF"/>
</svg>
