<svg width="35" height="36" viewBox="0 0 35 36" fill="none" xmlns="http://www.w3.org/2000/svg">
<path d="M22.1698 10.9371C34.0891 0.483048 30.4891 5.00676 26.207 14.0589C25.9476 14.7598 25.0206 15.7319 26.0917 16.2389C28.7647 17.1736 31.7595 18.0031 34.5142 19.4588C35.715 20.0897 34.4878 20.3934 33.0252 20.7206C29.9391 21.4216 28.4429 20.8351 24.7708 21.4216C24.4202 24.7045 28.0946 30.5344 28.5701 34.974C28.928 38.299 25.5369 32.7402 23.4715 29.6886C21.4589 26.7187 20.3878 25.8168 19.5712 24.7022C18.8051 23.6601 16.903 28.9081 12.3255 32.7425C11.2472 32.7425 11.7179 30.7728 12.0733 29.8381C13.608 24.6835 14.4942 22.0057 13.5143 21.9567C11.9172 21.8749 9.54679 21.723 4.67627 21.6085C-8.72726 21.2837 10.6804 17.017 13.2765 16.4562C12.3543 13.9514 9.88543 11.6568 8.47327 9.0094C6.87378 6.02086 10.9301 8.59816 12.0541 9.24306C14.8304 10.853 16.4923 13.5121 16.8934 9.05849C17.2008 5.64234 17.1143 -0.771716 18.3536 0.0764802C19.4175 0.814854 20.664 7.41349 22.1698 10.9371Z" fill="#5077FF"/>
</svg>
