<svg width="46" height="47" viewBox="0 0 46 47" fill="none" xmlns="http://www.w3.org/2000/svg">
<path d="M43.646 44.1993L37.3335 37.9418M34.021 7.31506L33.8752 15.1421C33.8543 16.216 34.5419 17.641 35.4169 18.2812L40.5836 22.1637C43.8961 24.6419 43.3544 27.6778 39.3961 28.9169L32.6669 31.0027C31.5419 31.3538 30.3544 32.5723 30.0628 33.7082L28.4586 39.7798C27.1877 44.571 24.021 45.046 21.396 40.8331L17.7293 34.9472C17.0627 33.8733 15.4793 33.068 14.2293 33.1299L7.27109 33.481C2.29192 33.7288 0.875232 30.8789 4.12523 27.1202L8.25019 22.3702C9.02103 21.4822 9.37518 19.8301 9.02101 18.7149L6.91695 12.0443C5.68779 8.12043 7.89609 5.95201 11.8336 7.23243L17.9795 9.23567C19.0211 9.5661 20.5836 9.33891 21.4586 8.6987L27.8753 4.11397C31.3336 1.63574 34.1044 3.08142 34.021 7.31506Z" stroke="#5077FF" stroke-width="4" stroke-linecap="round" stroke-linejoin="round"/>
</svg>
