<svg width="244" height="79" viewBox="0 0 244 79" fill="none" xmlns="http://www.w3.org/2000/svg">
<rect x="135" y="66" width="94" height="8" rx="2" fill="url(#paint0_linear_2005_352)"/>
<path d="M50.72 42V13.76H57V42H50.72ZM55.52 42V36.56H71V42H55.52ZM55.52 30.2V24.96H69.6V30.2H55.52ZM55.52 19.16V13.76H70.8V19.16H55.52Z" fill="url(#paint1_linear_2005_352)"/>
<rect x="98" y="73.7815" width="5.96215" height="8" rx="2" transform="rotate(-90 98 73.7815)" fill="url(#paint2_linear_2005_352)"/>
<rect x="12" y="5.21686" width="94" height="5.96215" rx="2" fill="url(#paint3_linear_2005_352)"/>
<path d="M223.284 62.6025L240.071 68.2345C241.733 68.7923 242.346 70.4616 241.439 71.9629V71.9629C240.533 73.4642 238.449 74.229 236.787 73.6711L220 68.0392L223.284 62.6025Z" fill="url(#paint4_linear_2005_352)"/>
<path d="M220 73.5336L236.895 68.0512C238.558 67.5116 240.621 68.2979 241.503 69.8074V69.8074C242.385 71.3169 241.752 72.9781 240.089 73.5177L223.194 79L220 73.5336Z" fill="url(#paint5_linear_2005_352)"/>
<path d="M19.8164 16.3975L3.02951 10.7656C1.36668 10.2077 0.753817 8.53843 1.66065 7.03714V7.03714C2.56748 5.53585 4.65061 4.77105 6.31344 5.32892L23.1003 10.9609L19.8164 16.3975Z" fill="url(#paint6_linear_2005_352)"/>
<path d="M23.1001 5.46649L6.2048 10.9489C4.5419 11.4885 2.47894 10.7022 1.59705 9.19265V9.19265C0.715151 7.68313 1.34828 6.02199 3.01118 5.48239L19.9065 2.25608e-05L23.1001 5.46649Z" fill="url(#paint7_linear_2005_352)"/>
<rect x="98" y="42.4803" width="37.2634" height="8" rx="2" transform="rotate(-90 98 42.4803)" fill="url(#paint8_linear_2005_352)"/>
<rect x="135" y="73.7815" width="37.2634" height="8" rx="2" transform="rotate(-90 135 73.7815)" fill="url(#paint9_linear_2005_352)"/>
<rect x="135" y="42.4803" width="29.8107" height="8" transform="rotate(-90 135 42.4803)" fill="url(#paint10_linear_2005_352)"/>
<rect x="98" y="66.3289" width="29.8107" height="8" transform="rotate(-90 98 66.3289)" fill="url(#paint11_linear_2005_352)"/>
<rect x="135" y="11.179" width="5.96215" height="8" rx="2" transform="rotate(-90 135 11.179)" fill="url(#paint12_linear_2005_352)"/>
<rect x="98" y="36.5181" width="45" height="5.96215" fill="url(#paint13_linear_2005_352)"/>
<rect x="40" y="42.4803" width="37.2634" height="8" transform="rotate(-90 40 42.4803)" fill="url(#paint14_linear_2005_352)"/>
<path d="M144.6 64L155.8 35.76H161.48L172.56 64H165.92L157.44 40.56H159.72L151.12 64H144.6ZM150.96 58.88V53.76H166.36V58.88H150.96Z" fill="url(#paint15_linear_2005_352)"/>
<path d="M86.12 42.44C84.0133 42.44 82.0533 42.08 80.24 41.36C78.4533 40.6133 76.88 39.5733 75.52 38.24C74.1867 36.9067 73.1467 35.36 72.4 33.6C71.6533 31.8133 71.28 29.8933 71.28 27.84C71.28 25.7867 71.6533 23.88 72.4 22.12C73.1467 20.3333 74.1867 18.7867 75.52 17.48C76.8533 16.1733 78.4133 15.16 80.2 14.44C82.0133 13.6933 83.9733 13.32 86.08 13.32C88.32 13.32 90.3067 13.68 92.04 14.4C93.8 15.12 95.3333 16.1067 96.64 17.36L92.44 21.6C91.6933 20.8 90.7867 20.1733 89.72 19.72C88.68 19.2667 87.4667 19.04 86.08 19.04C84.8533 19.04 83.72 19.2533 82.68 19.68C81.6667 20.08 80.7867 20.6667 80.04 21.44C79.32 22.2133 78.7467 23.1467 78.32 24.24C77.92 25.3333 77.72 26.5333 77.72 27.84C77.72 29.1733 77.92 30.3867 78.32 31.48C78.7467 32.5733 79.32 33.5067 80.04 34.28C80.7867 35.0533 81.6667 35.6533 82.68 36.08C83.72 36.5067 84.8533 36.72 86.08 36.72C87.52 36.72 88.7733 36.4933 89.84 36.04C90.9067 35.5867 91.8267 34.96 92.6 34.16L96.84 38.4C95.48 39.6533 93.92 40.64 92.16 41.36C90.4267 42.08 88.4133 42.44 86.12 42.44Z" fill="url(#paint16_linear_2005_352)"/>
<path d="M185.12 64.44C183.013 64.44 181.053 64.08 179.24 63.36C177.453 62.6133 175.88 61.5733 174.52 60.24C173.187 58.9067 172.147 57.36 171.4 55.6C170.653 53.8133 170.28 51.8933 170.28 49.84C170.28 47.7867 170.653 45.88 171.4 44.12C172.147 42.3333 173.187 40.7867 174.52 39.48C175.853 38.1733 177.413 37.16 179.2 36.44C181.013 35.6933 182.973 35.32 185.08 35.32C187.32 35.32 189.307 35.68 191.04 36.4C192.8 37.12 194.333 38.1067 195.64 39.36L191.44 43.6C190.693 42.8 189.787 42.1733 188.72 41.72C187.68 41.2667 186.467 41.04 185.08 41.04C183.853 41.04 182.72 41.2533 181.68 41.68C180.667 42.08 179.787 42.6667 179.04 43.44C178.32 44.2133 177.747 45.1467 177.32 46.24C176.92 47.3333 176.72 48.5333 176.72 49.84C176.72 51.1733 176.92 52.3867 177.32 53.48C177.747 54.5733 178.32 55.5067 179.04 56.28C179.787 57.0533 180.667 57.6533 181.68 58.08C182.72 58.5067 183.853 58.72 185.08 58.72C186.52 58.72 187.773 58.4933 188.84 58.04C189.907 57.5867 190.827 56.96 191.6 56.16L195.84 60.4C194.48 61.6533 192.92 62.64 191.16 63.36C189.427 64.08 187.413 64.44 185.12 64.44Z" fill="url(#paint17_linear_2005_352)"/>
<path d="M214.8 64L203.36 49.28L214.44 35.76H222.2L209.72 50.44V47.88L222.6 64H214.8ZM197.72 64V35.76H204V64H197.72Z" fill="url(#paint18_linear_2005_352)"/>
<defs>
<linearGradient id="paint0_linear_2005_352" x1="182" y1="66" x2="182" y2="74" gradientUnits="userSpaceOnUse">
<stop stop-color="#5077FF"/>
<stop offset="1" stop-color="#0034E9"/>
</linearGradient>
<linearGradient id="paint1_linear_2005_352" x1="58" y1="5" x2="58" y2="45" gradientUnits="userSpaceOnUse">
<stop stop-color="#5077FF"/>
<stop offset="1" stop-color="#0034E9"/>
</linearGradient>
<linearGradient id="paint2_linear_2005_352" x1="100.981" y1="73.7815" x2="100.981" y2="81.7815" gradientUnits="userSpaceOnUse">
<stop stop-color="#5077FF"/>
<stop offset="1" stop-color="#0034E9"/>
</linearGradient>
<linearGradient id="paint3_linear_2005_352" x1="59" y1="5.21686" x2="59" y2="11.179" gradientUnits="userSpaceOnUse">
<stop stop-color="#5077FF"/>
<stop offset="1" stop-color="#0034E9"/>
</linearGradient>
<linearGradient id="paint4_linear_2005_352" x1="233.183" y1="65.9236" x2="231.211" y2="71.8005" gradientUnits="userSpaceOnUse">
<stop stop-color="#5077FF"/>
<stop offset="1" stop-color="#0034E9"/>
</linearGradient>
<linearGradient id="paint5_linear_2005_352" x1="229.953" y1="70.3039" x2="231.862" y2="76.1872" gradientUnits="userSpaceOnUse">
<stop stop-color="#5077FF"/>
<stop offset="1" stop-color="#0034E9"/>
</linearGradient>
<linearGradient id="paint6_linear_2005_352" x1="9.91755" y1="13.0765" x2="11.8892" y2="7.19957" gradientUnits="userSpaceOnUse">
<stop stop-color="#5077FF"/>
<stop offset="1" stop-color="#0034E9"/>
</linearGradient>
<linearGradient id="paint7_linear_2005_352" x1="13.147" y1="8.69619" x2="11.2379" y2="2.81289" gradientUnits="userSpaceOnUse">
<stop stop-color="#5077FF"/>
<stop offset="1" stop-color="#0034E9"/>
</linearGradient>
<linearGradient id="paint8_linear_2005_352" x1="116.632" y1="42.4803" x2="116.632" y2="50.4803" gradientUnits="userSpaceOnUse">
<stop stop-color="#5077FF"/>
<stop offset="1" stop-color="#0034E9"/>
</linearGradient>
<linearGradient id="paint9_linear_2005_352" x1="153.632" y1="73.7815" x2="153.632" y2="81.7815" gradientUnits="userSpaceOnUse">
<stop stop-color="#5077FF"/>
<stop offset="1" stop-color="#0034E9"/>
</linearGradient>
<linearGradient id="paint10_linear_2005_352" x1="149.905" y1="42.4803" x2="149.905" y2="50.4803" gradientUnits="userSpaceOnUse">
<stop stop-color="#5077FF"/>
<stop offset="1" stop-color="#0034E9"/>
</linearGradient>
<linearGradient id="paint11_linear_2005_352" x1="112.905" y1="66.3289" x2="112.905" y2="74.3289" gradientUnits="userSpaceOnUse">
<stop stop-color="#5077FF"/>
<stop offset="1" stop-color="#0034E9"/>
</linearGradient>
<linearGradient id="paint12_linear_2005_352" x1="137.981" y1="11.179" x2="137.981" y2="19.179" gradientUnits="userSpaceOnUse">
<stop stop-color="#5077FF"/>
<stop offset="1" stop-color="#0034E9"/>
</linearGradient>
<linearGradient id="paint13_linear_2005_352" x1="120.5" y1="36.5181" x2="120.5" y2="42.4803" gradientUnits="userSpaceOnUse">
<stop stop-color="#5077FF"/>
<stop offset="1" stop-color="#0034E9"/>
</linearGradient>
<linearGradient id="paint14_linear_2005_352" x1="58.6317" y1="42.4803" x2="58.6317" y2="50.4803" gradientUnits="userSpaceOnUse">
<stop stop-color="#5077FF"/>
<stop offset="1" stop-color="#0034E9"/>
</linearGradient>
<linearGradient id="paint15_linear_2005_352" x1="154" y1="27" x2="154" y2="77" gradientUnits="userSpaceOnUse">
<stop stop-color="#5077FF"/>
<stop offset="1" stop-color="#0034E9"/>
</linearGradient>
<linearGradient id="paint16_linear_2005_352" x1="80" y1="5" x2="80" y2="37.7918" gradientUnits="userSpaceOnUse">
<stop stop-color="#5077FF"/>
<stop offset="1" stop-color="#0034E9"/>
</linearGradient>
<linearGradient id="paint17_linear_2005_352" x1="179" y1="27" x2="179" y2="59.7918" gradientUnits="userSpaceOnUse">
<stop stop-color="#5077FF"/>
<stop offset="1" stop-color="#0034E9"/>
</linearGradient>
<linearGradient id="paint18_linear_2005_352" x1="209" y1="27" x2="209" y2="66" gradientUnits="userSpaceOnUse">
<stop stop-color="#5077FF"/>
<stop offset="1" stop-color="#0034E9"/>
</linearGradient>
</defs>
</svg>
