<svg width="252" height="79" viewBox="0 0 252 79" fill="none" xmlns="http://www.w3.org/2000/svg">
<rect x="135" y="66" width="105" height="8" rx="2" fill="url(#paint0_linear_2005_352)"/>
<path d="M47.72 43V14.76H54V43H47.72ZM52.52 43V37.56H68V43H52.52ZM52.52 31.2V25.96H66.6V31.2H52.52ZM52.52 20.16V14.76H67.8V20.16H52.52Z" fill="url(#paint1_linear_2005_352)"/>
<rect x="98" y="73.7815" width="5.96215" height="8" rx="2" transform="rotate(-90 98 73.7815)" fill="url(#paint2_linear_2005_352)"/>
<path d="M37 43V6H45V43H37Z" fill="url(#paint3_linear_2005_352)"/>
<rect x="12" y="5.21686" width="94" height="5.96215" rx="2" fill="url(#paint4_linear_2005_352)"/>
<path d="M231.284 62.6025L248.071 68.2345C249.733 68.7923 250.346 70.4616 249.439 71.9629C248.533 73.4642 246.449 74.229 244.787 73.6711L228 68.0392L231.284 62.6025Z" fill="url(#paint5_linear_2005_352)"/>
<path d="M228 73.5336L244.895 68.0512C246.558 67.5116 248.621 68.2979 249.503 69.8074C250.385 71.3169 249.752 72.9781 248.089 73.5177L231.194 79L228 73.5336Z" fill="url(#paint6_linear_2005_352)"/>
<path d="M19.8164 16.3975L3.02951 10.7656C1.36668 10.2077 0.753817 8.53843 1.66065 7.03714C2.56748 5.53585 4.65061 4.77105 6.31344 5.32892L23.1003 10.9609L19.8164 16.3975Z" fill="url(#paint7_linear_2005_352)"/>
<path d="M23.1001 5.46649L6.2048 10.9489C4.5419 11.4885 2.47894 10.7022 1.59705 9.19265C0.715152 7.68313 1.34828 6.02199 3.01118 5.48239L19.9065 2.25608e-05L23.1001 5.46649Z" fill="url(#paint8_linear_2005_352)"/>
<rect x="98" y="42.4803" width="37.2634" height="8" rx="2" transform="rotate(-90 98 42.4803)" fill="url(#paint9_linear_2005_352)"/>
<rect x="135" y="73.7815" width="37.2634" height="8" rx="2" transform="rotate(-90 135 73.7815)" fill="url(#paint10_linear_2005_352)"/>
<rect x="135" y="42.4803" width="29.8107" height="8" transform="rotate(-90 135 42.4803)" fill="url(#paint11_linear_2005_352)"/>
<rect x="98" y="66.3289" width="29.8107" height="8" transform="rotate(-90 98 66.3289)" fill="url(#paint12_linear_2005_352)"/>
<rect x="135" y="11.179" width="5.96215" height="8" rx="2" transform="rotate(-90 135 11.179)" fill="url(#paint13_linear_2005_352)"/>
<rect x="98" y="36.5181" width="45" height="5.96215" fill="url(#paint14_linear_2005_352)"/>
<path d="M144.6 63L155.8 34.76H161.48L172.56 63H165.92L157.44 39.56H159.72L151.12 63H144.6ZM150.96 57.88V52.76H166.36V57.88H150.96Z" fill="url(#paint15_linear_2005_352)"/>
<path d="M84.12 43.44C82.0133 43.44 80.0533 43.08 78.24 42.36C76.4533 41.6133 74.88 40.5733 73.52 39.24C72.1867 37.9067 71.1467 36.36 70.4 34.6C69.6533 32.8133 69.28 30.8933 69.28 28.84C69.28 26.7867 69.6533 24.88 70.4 23.12C71.1467 21.3333 72.1867 19.7867 73.52 18.48C74.8533 17.1733 76.4133 16.16 78.2 15.44C80.0133 14.6933 81.9733 14.32 84.08 14.32C86.32 14.32 88.3067 14.68 90.04 15.4C91.8 16.12 93.3333 17.1067 94.64 18.36L90.44 22.6C89.6933 21.8 88.7867 21.1733 87.72 20.72C86.68 20.2667 85.4667 20.04 84.08 20.04C82.8533 20.04 81.72 20.2533 80.68 20.68C79.6667 21.08 78.7867 21.6667 78.04 22.44C77.32 23.2133 76.7467 24.1467 76.32 25.24C75.92 26.3333 75.72 27.5333 75.72 28.84C75.72 30.1733 75.92 31.3867 76.32 32.48C76.7467 33.5733 77.32 34.5067 78.04 35.28C78.7867 36.0533 79.6667 36.6533 80.68 37.08C81.72 37.5067 82.8533 37.72 84.08 37.72C85.52 37.72 86.7733 37.4933 87.84 37.04C88.9067 36.5867 89.8267 35.96 90.6 35.16L94.84 39.4C93.48 40.6533 91.92 41.64 90.16 42.36C88.4267 43.08 86.4133 43.44 84.12 43.44Z" fill="url(#paint16_linear_2005_352)"/>
<path d="M185.12 62.44C183.013 62.44 181.053 62.08 179.24 61.36C177.453 60.6133 175.88 59.5733 174.52 58.24C173.187 56.9067 172.147 55.36 171.4 53.6C170.653 51.8133 170.28 49.8933 170.28 47.84C170.28 45.7867 170.653 43.88 171.4 42.12C172.147 40.3333 173.187 38.7867 174.52 37.48C175.853 36.1733 177.413 35.16 179.2 34.44C181.013 33.6933 182.973 33.32 185.08 33.32C187.32 33.32 189.307 33.68 191.04 34.4C192.8 35.12 194.333 36.1067 195.64 37.36L191.44 41.6C190.693 40.8 189.787 40.1733 188.72 39.72C187.68 39.2667 186.467 39.04 185.08 39.04C183.853 39.04 182.72 39.2533 181.68 39.68C180.667 40.08 179.787 40.6667 179.04 41.44C178.32 42.2133 177.747 43.1467 177.32 44.24C176.92 45.3333 176.72 46.5333 176.72 47.84C176.72 49.1733 176.92 50.3867 177.32 51.48C177.747 52.5733 178.32 53.5067 179.04 54.28C179.787 55.0533 180.667 55.6533 181.68 56.08C182.72 56.5067 183.853 56.72 185.08 56.72C186.52 56.72 187.773 56.4933 188.84 56.04C189.907 55.5867 190.827 54.96 191.6 54.16L195.84 58.4C194.48 59.6533 192.92 60.64 191.16 61.36C189.427 62.08 187.413 62.44 185.12 62.44Z" fill="url(#paint17_linear_2005_352)"/>
<path d="M217.8 63L206.36 48.28L217.44 34.76H225.2L212.72 49.44V46.88L225.6 63H217.8ZM200.72 63V34.76H207V63H200.72Z" fill="url(#paint18_linear_2005_352)"/>
<defs>
<linearGradient id="paint0_linear_2005_352" x1="187.5" y1="66" x2="187.5" y2="74" gradientUnits="userSpaceOnUse">
<stop stop-color="#5077FF"/>
<stop offset="1" stop-color="#0034E9"/>
</linearGradient>
<linearGradient id="paint1_linear_2005_352" x1="55" y1="6" x2="55" y2="46" gradientUnits="userSpaceOnUse">
<stop stop-color="#5077FF"/>
<stop offset="1" stop-color="#0034E9"/>
</linearGradient>
<linearGradient id="paint2_linear_2005_352" x1="100.981" y1="73.7815" x2="100.981" y2="81.7815" gradientUnits="userSpaceOnUse">
<stop stop-color="#5077FF"/>
<stop offset="1" stop-color="#0034E9"/>
</linearGradient>
<linearGradient id="paint3_linear_2005_352" x1="40" y1="23.619" x2="48" y2="23.619" gradientUnits="userSpaceOnUse">
<stop stop-color="#5077FF"/>
<stop offset="1" stop-color="#0034E9"/>
</linearGradient>
<linearGradient id="paint4_linear_2005_352" x1="59" y1="5.21686" x2="59" y2="11.179" gradientUnits="userSpaceOnUse">
<stop stop-color="#5077FF"/>
<stop offset="1" stop-color="#0034E9"/>
</linearGradient>
<linearGradient id="paint5_linear_2005_352" x1="241.183" y1="65.9236" x2="239.211" y2="71.8005" gradientUnits="userSpaceOnUse">
<stop stop-color="#5077FF"/>
<stop offset="1" stop-color="#0034E9"/>
</linearGradient>
<linearGradient id="paint6_linear_2005_352" x1="237.953" y1="70.3039" x2="239.862" y2="76.1872" gradientUnits="userSpaceOnUse">
<stop stop-color="#5077FF"/>
<stop offset="1" stop-color="#0034E9"/>
</linearGradient>
<linearGradient id="paint7_linear_2005_352" x1="9.91755" y1="13.0765" x2="11.8892" y2="7.19957" gradientUnits="userSpaceOnUse">
<stop stop-color="#5077FF"/>
<stop offset="1" stop-color="#0034E9"/>
</linearGradient>
<linearGradient id="paint8_linear_2005_352" x1="13.147" y1="8.69619" x2="11.2379" y2="2.81289" gradientUnits="userSpaceOnUse">
<stop stop-color="#5077FF"/>
<stop offset="1" stop-color="#0034E9"/>
</linearGradient>
<linearGradient id="paint9_linear_2005_352" x1="116.632" y1="42.4803" x2="116.632" y2="50.4803" gradientUnits="userSpaceOnUse">
<stop stop-color="#5077FF"/>
<stop offset="1" stop-color="#0034E9"/>
</linearGradient>
<linearGradient id="paint10_linear_2005_352" x1="153.632" y1="73.7815" x2="153.632" y2="81.7815" gradientUnits="userSpaceOnUse">
<stop stop-color="#5077FF"/>
<stop offset="1" stop-color="#0034E9"/>
</linearGradient>
<linearGradient id="paint11_linear_2005_352" x1="149.905" y1="42.4803" x2="149.905" y2="50.4803" gradientUnits="userSpaceOnUse">
<stop stop-color="#5077FF"/>
<stop offset="1" stop-color="#0034E9"/>
</linearGradient>
<linearGradient id="paint12_linear_2005_352" x1="112.905" y1="66.3289" x2="112.905" y2="74.3289" gradientUnits="userSpaceOnUse">
<stop stop-color="#5077FF"/>
<stop offset="1" stop-color="#0034E9"/>
</linearGradient>
<linearGradient id="paint13_linear_2005_352" x1="137.981" y1="11.179" x2="137.981" y2="19.179" gradientUnits="userSpaceOnUse">
<stop stop-color="#5077FF"/>
<stop offset="1" stop-color="#0034E9"/>
</linearGradient>
<linearGradient id="paint14_linear_2005_352" x1="120.5" y1="36.5181" x2="120.5" y2="42.4803" gradientUnits="userSpaceOnUse">
<stop stop-color="#5077FF"/>
<stop offset="1" stop-color="#0034E9"/>
</linearGradient>
<linearGradient id="paint15_linear_2005_352" x1="154" y1="26" x2="154" y2="62" gradientUnits="userSpaceOnUse">
<stop stop-color="#5077FF"/>
<stop offset="1" stop-color="#0034E9"/>
</linearGradient>
<linearGradient id="paint16_linear_2005_352" x1="78" y1="6" x2="78" y2="38.7918" gradientUnits="userSpaceOnUse">
<stop stop-color="#5077FF"/>
<stop offset="1" stop-color="#0034E9"/>
</linearGradient>
<linearGradient id="paint17_linear_2005_352" x1="179" y1="25" x2="179" y2="57.7918" gradientUnits="userSpaceOnUse">
<stop stop-color="#5077FF"/>
<stop offset="1" stop-color="#0034E9"/>
</linearGradient>
<linearGradient id="paint18_linear_2005_352" x1="212" y1="26" x2="212" y2="65" gradientUnits="userSpaceOnUse">
<stop stop-color="#5077FF"/>
<stop offset="1" stop-color="#0034E9"/>
</linearGradient>
</defs>
</svg>
