<svg width="98" height="60" viewBox="0 0 98 60" fill="none" xmlns="http://www.w3.org/2000/svg">
<path fill-rule="evenodd" clip-rule="evenodd" d="M96.9962 28.5191C93.4903 25.7885 86.228 27.4434 78.5484 32.6565L74.9591 35.0562C75.126 33.8977 75.8773 26.1195 76.3781 22.7268C77.2963 16.7691 68.6985 16.7691 59.266 22.8096L53.1724 26.6987C53.3393 25.7057 53.9236 20.7409 55.1758 16.0244C56.9287 9.32186 49.7499 6.7567 40.5678 10.8113C37.2289 12.3007 34.1403 13.7074 33.6395 13.9557C32.9717 14.2039 32.5543 12.3835 32.3874 8.41163C31.97 1.37815 31.2187 -0.525033 24.2069 0.964407C16.8612 2.53659 -0.000488281 13.211 -0.000488281 16.3553C-0.000488281 20.9892 9.51554 21.9821 15.1918 17.9275L19.282 15.0314C19.115 15.9416 18.3638 20.8237 17.2786 22.8923C14.6074 28.1054 24.2069 30.1741 32.8882 26.285C40.8182 22.7269 40.6513 22.3959 38.5645 30.7533C37.3123 35.8009 37.4793 49.124 57.2626 35.6362C59.1825 34.3123 60.852 33.484 60.852 33.815C60.852 34.2287 60.2677 37.2084 59.5999 40.601C57.3461 51.3581 63.2727 52.7648 76.5451 44.7384C79.4667 43.0007 81.9709 41.5104 82.2213 41.5104C82.4717 41.5104 82.3882 44.7376 82.0543 48.5439C81.3031 58.4735 86.228 62.4454 92.8225 57.2323C96.3284 54.4189 99.7508 30.6705 96.9962 28.5191Z" fill="#5077FF"/>
</svg>
