<svg width="100" height="100" viewBox="0 0 100 100" fill="none" xmlns="http://www.w3.org/2000/svg">
<path fill-rule="evenodd" clip-rule="evenodd" d="M48.3693 2.89687C47.9431 6.44897 47.9715 15.6844 48.5966 16.8779C50.0459 19.7764 51.4383 17.5031 51.7509 11.7629C52.0067 6.76155 52.234 4.34612 52.2624 3.06737C52.3761 0.225695 48.6535 0.453045 48.3693 2.89687ZM67.3801 3.69254C65.3909 4.48822 54.28 24.6925 54.28 27.5342C54.28 28.3299 55.5019 28.5856 56.4397 27.9604C57.3774 27.3353 59.6223 23.8684 62.3788 18.725C65.4478 13.0416 68.7157 7.13097 69.5114 5.88062C70.7617 3.89144 69.6819 2.7832 67.3801 3.69254ZM29.9837 8.0403C29.4722 8.40972 29.5575 8.58022 31.092 11.5071C36.9458 22.5328 37.2584 23.84 40.1569 23.4706C42.345 23.1864 42.345 23.0443 39.3896 17.5883C36.008 11.2798 34.161 8.29604 33.5074 7.95504C32.7685 7.52879 30.6089 7.58565 29.9837 8.0403ZM77.1555 9.88739C75.5073 10.5694 66.7834 20.9131 66.7834 22.1918C66.7834 24.5788 71.1027 21.1972 78.8036 12.8143C81.1054 10.2852 80.1961 8.63704 77.1555 9.88739ZM18.8443 15.5139C16.2584 16.0254 20.0947 20.7142 23.1068 20.7142C25.5223 20.7142 25.6075 19.5775 23.3626 17.4462C22.027 16.1391 20.6914 15.1445 18.8443 15.5139ZM87.3571 19.6059C85.7657 20.4584 83.7482 22.2771 80.1961 24.6357C75.9904 27.4205 71.529 30.5748 70.1934 31.7399C67.8916 33.729 69.7955 34.2405 72.6656 32.365C73.6318 31.7399 76.5587 29.9212 79.1731 28.3583C85.3963 24.6073 91.7617 20.43 91.7617 20.1458C91.7901 19.0376 89.0621 18.6966 87.3571 19.6059ZM48.6535 21.3393C48.142 21.8508 48.2272 24.5504 48.7671 25.0903C50.6995 27.0227 53.2002 23.5274 51.4099 21.3962C51.0121 20.9131 49.1082 20.8847 48.6535 21.3393ZM25.4086 23.9537C24.7266 24.4368 25.0108 24.8346 29.529 29.6654C34.843 35.3488 35.326 35.633 37.6278 34.5815C38.6792 34.0984 38.5656 33.8711 36.2922 31.2852C30.4668 24.7209 27.2841 22.5897 25.4086 23.9537ZM9.26788 30.1769C8.21645 30.9726 8.87005 31.3704 15.3491 33.9279C21.8565 36.4855 25.4086 38.3041 30.3815 41.5152C33.1948 43.3339 37.8835 43.4191 36.4059 41.6005C33.0527 37.6221 11.456 28.5004 9.26788 30.1769ZM88.3801 35.5193C72.6656 41.1458 71.4437 41.7426 72.5235 42.8224C73.035 43.3339 73.8023 43.2486 77.0418 42.2825C98.2407 35.974 98.6385 36.2013 96.0526 34.3258C94.717 33.3596 94.1203 33.4449 88.3801 35.5193ZM62.5208 36.6844C60.3612 38.5599 60.1623 39.1566 61.4978 39.526C64.1974 40.2365 67.9769 36.5139 67.9484 36.5423C68.0906 36.4002 68.2042 36.2013 68.1758 36.0024C68.1758 35.8035 68.0621 35.6045 67.92 35.4625C66.5276 34.2974 64.7942 34.6952 62.5208 36.6844ZM48.2841 40.0944L47.6873 42.3677C46.5222 46.9144 43.3111 50.8359 40.782 50.8359C38.935 50.8359 40.0432 52.3988 42.1176 52.7398C44.8741 53.1661 47.3179 57.8264 47.4316 62.3731C47.5168 65.4421 50.6427 65.499 51.2394 63.2824C52.8023 57.5423 54.0811 55.2405 57.4058 52.683C59.4519 51.1201 59.4803 50.8359 57.7468 49.6708C54.962 47.7953 54.3084 46.8007 52.6602 41.9131C50.8131 36.4002 48.7387 38.4178 48.2841 40.0944ZM7.81863 42.1972C7.2503 42.7656 7.2503 43.5328 7.84705 44.7831C8.58588 46.3177 9.60888 46.6587 17.9066 47.8522C20.6346 48.25 24.0162 48.8467 25.4086 49.1877C28.2787 49.8982 28.5344 49.7561 28.3355 47.9374C28.1366 46.2324 27.5114 45.5788 25.6928 45.0105C22.9932 44.2148 22.3112 44.0727 16.5426 43.1634C13.502 42.6803 10.5182 42.1688 9.86463 42.0267C8.30173 41.6857 8.35855 41.6857 7.81863 42.1972ZM51.2962 47.6532C51.8646 48.5057 52.7455 49.273 53.9106 49.955C55.8145 51.0632 55.985 51.2622 55.1325 51.5463C54.28 51.8305 52.0919 53.7344 51.0973 55.07L50.2164 56.2635L49.4207 54.9848C48.6251 53.7344 46.778 52.1715 45.6697 51.8305C45.1582 51.66 45.2435 51.5179 46.5222 50.4097C49.0229 48.2216 49.5913 44.9821 50.1311 45.9198C50.3017 46.1472 50.8131 46.9428 51.2962 47.6532ZM66.556 50.2676C65.3341 50.7507 66.9823 53.4503 68.7157 53.7628C71.6711 54.3312 84.6859 54.2743 84.6859 53.706C84.6859 52.8819 83.123 51.2053 82.0431 50.8643C80.4518 50.3812 67.579 49.8697 66.556 50.2676ZM86.2204 51.2337C85.6521 52.7398 88.0959 54.1038 92.3584 54.6153C96.6778 55.1268 97.2461 54.8143 95.5695 52.7967C94.1487 51.1485 86.7319 49.8982 86.2204 51.2337ZM30.2395 53.024C28.7334 54.5301 30.8078 57.457 33.28 57.3149C34.985 57.2297 35.4113 56.3488 34.644 54.5017C34.0189 52.9388 31.2625 52.0294 30.2395 53.024ZM18.7591 54.4164C15.2638 55.1268 10.3761 55.9509 7.67655 56.2351C4.01078 56.6613 2.8457 56.9739 2.8457 57.6275C2.8457 58.7642 5.26113 60.0714 6.9377 59.844C7.56288 59.7588 9.75098 59.4746 11.797 59.2473C20.1231 58.2243 25.8633 56.7182 25.2949 55.6952C24.4708 54.1607 22.1691 53.706 18.7591 54.4164ZM71.3585 61.549C67.2949 63.5098 72.0973 66.664 76.4735 64.9022C77.8375 64.3623 76.6155 62.7141 75.2515 62.1174C73.0066 61.1228 72.4383 61.0375 71.3585 61.549ZM61.9525 63.5666C60.3043 64.1065 59.8497 65.5558 61.0716 66.522C61.5263 66.8914 63.9985 69.0795 66.5844 71.3812C77.2407 80.9292 80.3382 83.231 81.6737 82.6343C83.805 81.6681 82.2136 79.7642 70.9038 69.9888C64.7658 64.6749 62.805 63.2824 61.9525 63.5666ZM35.5818 65.641C33.8199 66.522 17.6224 83.4015 17.6224 84.3393C17.6224 86.1579 21.4587 85.6464 23.3342 83.572C24.755 82.0091 29.1028 77.4624 35.1839 71.2391C40.5831 65.6979 40.782 63.0267 35.5818 65.641ZM80.7928 66.6072C79.8835 67.005 79.2299 68.3122 79.7698 68.71C87.0729 73.8251 90.6818 74.8196 90.6818 71.6938C90.6534 69.932 82.6399 65.8115 80.7928 66.6072ZM17.6224 69.9035C13.3599 72.0632 13.2462 72.1769 14.3545 72.8873C16.4573 74.2513 26.5453 69.733 24.5845 68.2838C23.391 67.4029 21.8281 67.7723 17.6224 69.9035ZM49.6481 69.9604C48.3409 70.955 47.8578 75.4448 51.0689 75.5016C52.3192 75.5301 53.257 74.2229 53.2002 72.0348C53.1433 69.7615 51.2962 68.6816 49.6481 69.9604ZM40.2421 73.6546C38.1961 76.1552 33.2232 84.4813 33.2232 85.4191C33.2232 87.9198 38.0825 82.2648 42.1176 74.9901C43.7942 72.0348 42.3734 71.0402 40.2421 73.6546ZM60.5033 73.7398C59.3382 75.1606 69.7387 88.0618 71.4153 87.2946C72.893 86.6126 72.4099 85.7601 67.238 79.8494C61.8673 73.6261 61.1284 72.9726 60.5033 73.7398ZM49.7901 80.3325C48.5398 81.1282 47.6873 97.411 48.8808 98.3487C51.4668 100.452 52.575 97.5246 52.5466 88.6586C52.5466 80.6735 51.9783 78.9685 49.7901 80.3325Z" fill="#FF5252"/>
</svg>
